<?xml version="1.0" encoding="UTF-8" standalone="no"?>
<!-- Creator: CorelDRAW X6 -->

<svg
   xml:space="preserve"
   width="23.188969mm"
   height="23.188969mm"
   version="1.1"
   style="clip-rule:evenodd;fill-rule:evenodd;image-rendering:optimizeQuality;shape-rendering:geometricPrecision;text-rendering:geometricPrecision"
   viewBox="0 0 21379.453 21379.999"
   id="svg2"
   inkscape:version="1.3.2 (091e20e, 2023-11-25)"
   sodipodi:docname="CoderDojoPotsdam.svg"
   inkscape:export-filename="CoderDojoPotsdam.png"
   inkscape:export-xdpi="1121.6367"
   inkscape:export-ydpi="1121.6367"
   xmlns:inkscape="http://www.inkscape.org/namespaces/inkscape"
   xmlns:sodipodi="http://sodipodi.sourceforge.net/DTD/sodipodi-0.dtd"
   xmlns="http://www.w3.org/2000/svg"
   xmlns:svg="http://www.w3.org/2000/svg"
   xmlns:rdf="http://www.w3.org/1999/02/22-rdf-syntax-ns#"
   xmlns:cc="http://creativecommons.org/ns#"
   xmlns:dc="http://purl.org/dc/elements/1.1/"><metadata
   id="metadata23"><rdf:RDF><cc:Work
       rdf:about=""><dc:format>image/svg+xml</dc:format><dc:type
         rdf:resource="http://purl.org/dc/dcmitype/StillImage" /></cc:Work></rdf:RDF></metadata><sodipodi:namedview
   pagecolor="#ffffff"
   bordercolor="#666666"
   borderopacity="1"
   objecttolerance="10"
   gridtolerance="10"
   guidetolerance="10"
   inkscape:pageopacity="0"
   inkscape:pageshadow="2"
   inkscape:window-width="1560"
   inkscape:window-height="842"
   id="namedview21"
   showgrid="false"
   inkscape:zoom="6.1271047"
   inkscape:cx="43.821676"
   inkscape:cy="43.821676"
   inkscape:window-x="0"
   inkscape:window-y="58"
   inkscape:window-maximized="0"
   inkscape:current-layer="Layer_x0020_1"
   inkscape:showpageshadow="2"
   inkscape:pagecheckerboard="0"
   inkscape:deskcolor="#d1d1d1"
   inkscape:document-units="mm"
   inkscape:export-bgcolor="#ffffff00" />
 <defs
   id="defs4">
  <style
   type="text/css"
   id="style6">
   
    .fil1 {fill:#FEFEFE}
    .fil0 {fill:black}
    .fil2 {fill:white}
   
  </style>
 
   
   
   
   
  </defs>
 <g
   id="Layer_x0020_1"
   inkscape:label="Layer 1"
   inkscape:groupmode="layer"
   transform="translate(-0.96980788)">
  <metadata
   id="CorelCorpID_0Corel-Layer" />
  
  <ellipse
   style="fill:#ffffff;stroke-width:734.556"
   id="path2"
   cx="10690"
   cy="10689.999"
   rx="10236.608"
   ry="10616.349" /><g
   id="g1"><path
     class="fil0"
     d="m 10690,0 c 5904,0 10690,4786 10690,10690 0,5904 -4786,10690 -10690,10690 C 4786,21380 0,16594 0,10690 0,4786 4786,0 10690,0 Z m -108,553 c -50,0 -100,1 -150,2 -5528,80 -9989,4590 -9989,10136 0,5553 4471,10066 10008,10136 -2738,-69 -4938,-2313 -4938,-5067 0,-2798 2271,-5069 5069,-5069 2798,0 5069,-2271 5069,-5069 0,-2798 -2271,-5069 -5069,-5069 z"
     id="path15" /><path
     class="fil0"
     d="M 8982,6619 V 2840 c 0,-165 60,-308 181,-428 120,-120 263,-181 429,-181 h 1970 c 163,0 304,60 423,181 119,120 178,263 178,428 v 3779 c 0,168 -60,311 -178,430 -119,119 -263,178 -431,178 H 9592 c -170,0 -315,-59 -433,-178 -118,-119 -176,-262 -176,-430 z m 2557,-23 V 2871 H 9614 v 3725 z"
     id="path17" /><path
     class="fil2"
     d="m 9702,18043 h 970 v -3725 h -954 c -88,0 -162,-31 -224,-92 -62,-61 -92,-136 -92,-224 0,-87 31,-162 92,-223 61,-61 136,-92 224,-92 h 1586 v 4357 h 632 v -1315 c 0,-85 31,-159 92,-222 61,-63 136,-94 223,-94 88,0 163,31 224,92 61,62 92,136 92,224 v 1631 c 0,88 -31,163 -92,225 -61,61 -135,91 -224,91 H 9702 c -88,0 -162,-32 -223,-95 -62,-64 -92,-140 -92,-228 0,-85 31,-158 92,-219 61,-60 136,-90 223,-90 z"
     id="path19" /></g><path
   id="path1"
   style="fill:none;stroke-width:407.532"
   d="M 14764.588,2163.2996 A 9450.5479,9449.9316 25.537575 0 0 2163.4408,6615.8406 9450.5479,9449.9316 25.537575 0 0 6616.8021,19216.698 9450.5479,9449.9316 25.537575 0 0 19217.952,14764.158 9450.5479,9449.9316 25.537575 0 0 14764.588,2163.2996 Z" /><g
   id="text1"
   style="font-size:2276.8px;font-family:'League Gothic';-inkscape-font-specification:'League Gothic';text-align:center;letter-spacing:0px;text-anchor:middle;fill:#1a1a1a;stroke-width:460.994"
   aria-label="CoderDojo                                             Potsdam"><path
     style="font-family:'Source Sans Pro';-inkscape-font-specification:'Source Sans Pro';stroke-width:460.995"
     d="m 5619.8572,3596.1895 q 113.3171,139.6834 164.7846,282.6332 51.4676,142.9497 45.6233,276.6894 -5.8444,133.7397 -66.565,250.4299 -61.0544,119.8927 -172.4475,210.2594 -106.0887,86.0636 -221.515,106.4077 -113.9919,22.1122 -211.1687,7.129 l 7.08,-161.1282 q 86.1347,12.2139 165.6656,-5.3964 79.1972,-14.4077 153.4593,-74.6522 83.1028,-67.4165 123.0388,-155.5182 41.3704,-86.3335 38.9066,-186.9472 -1.0295,-98.8455 -44.7926,-207.0005 -43.7631,-108.155 -131.261,-216.0118 -88.9324,-109.625 -185.4061,-177.9507 -96.8074,-65.1232 -192.9829,-89.714 -96.1755,-24.5909 -188.8503,-5.1131 -94.443,20.9122 -177.5458,88.3287 -84.8709,68.8509 -119.5025,152.6494 -36.3998,85.2328 -42.7766,193.0185 l -156.2569,-22.7589 q 4.41,-135.5078 55.1892,-249.9967 50.7793,-114.4889 162.1724,-204.8557 109.625,-88.9323 236.3277,-124.2878 124.9345,-33.9211 255.5711,-13.8322 130.3027,23.2914 259.5687,103.1278 128.9322,83.039 243.6836,224.4906 z m -1058.6064,621.3177 q 101.1312,95.1917 150.9626,198.3782 49.9288,106.4048 56.263,209.2965 6.3342,102.8918 -27.9025,195.7362 -35.7973,94.5022 -106.0207,169.1072 -70.2234,74.605 -160.8283,114.3917 -92.1654,41.4446 -195.2519,41.342 -103.0864,-0.1026 -210.7545,-45.1656 -107.5706,-41.8446 -208.7018,-137.0363 -99.4734,-93.6312 -149.4021,-200.0361 -49.8314,-103.1864 -56.1656,-206.0782 -4.6763,-101.3312 31.1209,-195.8334 34.2367,-92.8444 104.4601,-167.4494 70.2234,-74.605 162.3889,-116.0496 90.6049,-39.7867 192.0335,-41.2446 103.0864,0.1026 210.6571,41.9472 107.668,45.063 207.1413,138.6942 z m -132.6442,140.9205 q -69.6313,-65.5418 -141.6048,-102.0206 -71.9734,-36.4788 -141.51,-45.6499 -69.4392,-5.9526 -133.2231,15.3053 -62.1261,22.8183 -110.5023,74.2129 -48.3761,51.3945 -67.3971,114.7864 -17.363,64.9524 -5.6631,132.2468 11.7973,70.5129 52.5604,140.1495 40.763,69.6366 110.3943,135.1784 69.6313,65.5419 141.6047,102.0207 73.6313,38.0393 144.7284,45.5524 69.5366,9.1711 131.6627,-13.6473 63.784,-21.2578 112.1601,-72.6524 48.3761,-51.3945 65.7392,-116.3469 19.021,-63.3919 7.2237,-133.9048 -13.3579,-68.855 -55.7788,-140.0521 -40.763,-69.6365 -110.3943,-135.1784 z m -659.4543,712.9172 q 109.095,78.3783 173.4176,172.2494 64.8433,97.0485 87.3376,194.5102 22.4944,97.4616 5.2967,191.6382 -17.1977,94.1766 -72.9924,171.8375 -55.7946,77.6609 -124.7125,115.0553 -68.9178,37.3944 -159.5038,62.025 l 158.7864,102.8647 345.7758,248.4192 -110.261,153.4726 -1316.5364,-945.8527 90.3343,-125.7367 114.696,62.7779 3.9853,-5.5472 q -13.249,-90.8194 -1.5985,-188.9813 12.1711,-94.9845 69.2942,-174.4944 122.2169,-170.1142 317.3199,-184.1356 193.7745,-12.1723 419.3608,149.8979 z m -111.0688,158.4993 q -162.7179,-116.9032 -299.8178,-117.2796 -137.0999,-0.3764 -222.1204,117.9639 -45.1671,62.8683 -55.4354,139.5955 -8.4192,78.0556 14.5958,178.6948 l 469.6632,337.425 q 92.9557,-20.1247 151.8204,-59.1347 59.3853,-35.8326 99.2386,-91.3047 38.5249,-53.6229 47.1775,-120.2969 9.1733,-63.4965 -11.813,-131.8399 -19.1372,-67.015 -67.3926,-132.5219 -48.2554,-65.5068 -125.9163,-121.3015 z m -573.8929,817.4506 q 120.1213,65.0586 194.6987,152.0575 75.4952,90.0853 109.0326,185.9282 32.4531,97.8449 24.1994,194.357 -6.2517,97.5964 -51.7927,181.6813 -49.8782,92.093 -120.9457,146.8168 -72.1518,56.7259 -158.2359,72.2451 -87.1684,17.5213 -185.3493,-1.9935 -98.181,-19.5147 -202.2861,-75.8988 -54.0546,-29.2764 -86.8381,-54.8 l 355.6536,-656.6631 q -163.5812,-75.6504 -302.2995,-39.4417 -139.8027,38.2107 -215.7044,178.3522 -37.9508,70.0708 -49.3756,138.9725 -10.507,71.9881 -5.749,144.4759 l -139.5542,-0.4941 q -5.3425,-85.7509 6.9153,-180.0944 12.2577,-94.3435 66.4732,-194.4445 53.1312,-98.0991 133.7909,-165.7528 81.5774,-64.5673 180.34,-93.9341 99.6803,-26.2804 213.2929,-11.3543 113.6126,14.9262 233.7339,79.9848 z m -294.5905,720.8068 q 150.1516,81.3232 262.9284,59.5466 113.6944,-18.6903 175.5001,-132.8055 28.192,-52.0526 32.1932,-112.0285 4.919,-56.8896 -14.5196,-116.6142 -17.4365,-58.6403 -61.3991,-116.1115 -43.0449,-54.385 -112.7825,-102.5125 z m 279.1605,520.1015 -59.5507,142.9114 -191.0745,-62.3542 -2.6272,6.3049 q 74.7817,92.8253 100.8748,190.0279 25.2174,99.3041 -11.564,187.573 -25.3966,60.9475 -66.5552,100.5277 l -137.306,-96.68 q 18.9155,-21.7166 31.8762,-40.9815 12.9608,-19.2649 26.097,-50.7895 27.1481,-65.1508 4.3825,-158.5002 -23.6413,-91.2478 -132.0493,-198.085 l -655.7113,-273.2329 71.8112,-172.3344 z m 108.8923,734.8418 -102.8026,358.9647 q -95.2804,332.6989 -328.6611,452.9598 -233.3807,120.2609 -577.0237,21.8462 -170.727,-48.8939 -293.8963,-131.5344 -120.9804,-82.0138 -190.6522,-194.3316 -67.483,-111.6911 -82.0955,-250.8706 -12.4236,-138.5527 33.9629,-300.5245 l 105.31,-367.7199 z m -1386.061,-22.7531 q -72.0872,251.713 43.2104,419.7274 114.6708,170.2033 388.2719,248.5589 273.6011,78.3556 454.4195,-7.2235 180.1915,-83.3903 252.2787,-335.1033 l 47.0134,-164.1607 -1138.1805,-325.9594 z m 157.3898,944.301 q 137.5349,19.3163 237.8046,74.7834 102.2077,58.0385 166.7954,138.3831 64.5877,80.3446 90.2507,175.9147 25.3464,97.8248 11.0966,199.285 -14.2497,101.4602 -65.2455,186.2639 -51.3125,87.0583 -135.5332,146.5033 -84.2206,59.4451 -198.1447,84.8295 -111.9861,27.9557 -249.5211,8.6394 -135.2803,-18.9996 -237.488,-77.0381 -100.2697,-55.4671 -164.8574,-135.8117 -62.333,-80.028 -87.6794,-177.8528 -25.663,-95.5701 -11.4133,-197.0303 14.2498,-101.4602 65.5623,-188.5185 50.9958,-84.8037 132.9618,-144.5654 84.2206,-59.445 196.2067,-87.4007 113.9242,-25.3844 249.2045,-6.3848 z m -26.9162,191.6471 q -94.6962,-13.2997 -174.5216,-1.5195 -79.8255,11.7803 -141.8922,44.4479 -60.1286,35.2389 -99.9272,89.4271 -37.5439,54.5049 -47.3604,124.3997 -9.8164,69.8948 11.2611,132.6329 23.3322,63.0547 71.7445,111.2386 50.3502,50.7553 123.8425,84.0685 73.4922,33.3132 168.1884,46.6129 94.6962,13.2997 174.5217,1.5195 82.0801,-11.4636 144.4634,-46.3859 62.0667,-32.6676 99.6106,-87.1724 39.7986,-54.1883 49.6151,-124.0831 9.8164,-69.8948 -13.5158,-132.9495 -21.0776,-62.7381 -71.4278,-113.4933 -50.6669,-48.5006 -126.4138,-82.1305 -73.4923,-33.3132 -168.1885,-46.6129 z m 437.0745,1090.1681 -8.3019,186.513 -1230.5305,-54.772 q -168.31651,-7.492 -265.35934,-80.183 -97.04284,-72.691 -89.65214,-238.733 2.32858,-52.3147 13.24914,-92.8516 10.92056,-40.5369 23.60945,-69.5998 l 139.30085,44.9444 q -7.73483,20.1672 -13.49883,47.2592 -8.03856,26.9909 -9.35471,56.5598 -3.64473,81.884 52.00406,111.71 55.64882,29.825 158.00342,34.381 z m 223.2026,105.656 q 2.4298,-54.59 38.2691,-91.738 35.7381,-34.874 88.0527,-32.546 54.5892,2.43 84.813,40.24 32.3971,40.186 29.9673,94.775 -2.3286,52.315 -38.0667,87.189 -33.5648,37.25 -88.154,34.82 -52.3146,-2.328 -84.7117,-42.514 -32.4983,-37.912 -30.1697,-90.226 z m -805.6136,295.639 q 138.7073,-7.02 247.6517,28.501 111.3333,37.679 189.9393,104.372 78.6061,66.693 121.8657,155.692 43.3746,91.273 48.5535,193.598 5.1789,102.325 -28.8737,195.237 -33.9376,95.186 -105.4083,169.475 -71.4707,74.288 -178.5458,120.742 -104.6862,48.613 -243.3934,55.633 -136.4334,6.906 -247.7668,-30.774 -108.9443,-35.521 -187.5503,-102.214 -76.3322,-66.808 -119.7069,-158.081 -43.2595,-88.999 -48.4384,-191.324 -5.1789,-102.325 28.7587,-197.511 34.0526,-92.912 103.2494,-167.085 71.4707,-74.289 176.1568,-122.902 107.0752,-46.454 243.5085,-53.359 z m 9.7824,193.281 q -95.5034,4.833 -171.6647,31.485 -76.1614,26.652 -130.9371,70.459 -52.3867,45.966 -81.2289,106.698 -26.5683,60.618 -23.0006,131.108 3.5676,70.491 36.1204,128.116 34.8267,57.51 91.4717,95.678 59.0338,40.326 137.4969,59.152 78.4632,18.826 173.9665,13.993 95.5034,-4.834 171.6647,-31.486 78.4353,-26.767 133.0959,-72.848 54.7757,-43.807 81.344,-104.424 28.8422,-60.732 25.2745,-131.223 -3.5676,-70.491 -38.3943,-128.001 -32.5529,-57.625 -91.5867,-97.951 -58.9188,-38.053 -139.6558,-56.764 -78.4631,-18.826 -173.9665,-13.992 z"
     id="path3" /><path
     style="font-family:'Source Sans Pro';-inkscape-font-specification:'Source Sans Pro';fill:#f9f9f9;stroke-width:460.995"
     d="m 16112.574,16529.056 318.348,-328.764 q 85.526,-88.325 173.154,-146.091 87.628,-57.766 174.347,-72.043 86.666,-17.496 174.11,13.299 89.028,29.16 177.352,114.686 85.054,82.358 118.7,171.985 35.229,87.991 25.438,179.927 -9.791,91.937 -59.799,186.13 -50.061,90.974 -135.587,179.299 l -186.891,193.006 425.268,411.793 -131.457,135.759 z m 839.001,207.085 q 136.208,-140.665 148.804,-258.409 12.545,-120.963 -101.951,-231.831 -116.13,-112.451 -226.813,-86.517 -112.319,24.35 -246.943,163.38 l -171.053,176.65 426.903,413.377 z m 585.875,-337.729 q -111.606,-82.663 -173.205,-179.287 -62.073,-99.809 -80.44,-201.246 -18.368,-101.437 4.734,-197.658 24.458,-98.051 85.439,-180.383 60.981,-82.332 146.289,-132.479 86.664,-51.976 189.05,-63.974 102.386,-11.998 214.599,20.115 111.738,28.929 223.344,111.592 109.776,81.308 171.849,181.117 61.599,96.624 79.966,198.061 16.538,100.082 -7.919,198.133 -23.102,96.221 -84.083,178.553 -60.981,82.332 -147.645,134.308 -85.308,50.147 -185.865,63.5 -102.386,11.998 -214.124,-16.931 -112.213,-32.113 -221.989,-113.421 z m 115.186,-155.516 q 76.843,56.915 152.601,84.694 75.758,27.779 145.89,28.724 69.658,-2.239 130.506,-30.837 59.018,-29.953 101.027,-86.67 42.009,-56.718 53.458,-121.904 9.619,-66.541 -9.899,-131.997 -19.992,-68.641 -68.647,-133.012 -48.655,-64.37 -125.498,-121.286 -76.844,-56.915 -152.601,-84.694 -77.588,-29.134 -149.075,-28.25 -70.132,-0.945 -129.151,29.008 -60.848,28.597 -102.857,85.315 -42.009,56.717 -51.628,123.259 -11.449,65.186 8.544,133.827 21.347,66.811 71.832,132.537 48.655,64.37 125.498,121.286 z m 278.374,-1103.509 -83.083,141.316 -121.689,-71.543 77.885,-154.937 -255.392,-176.56 79.621,-135.428 266.93,156.933 151.164,-257.117 131.503,77.313 -151.164,257.117 529.936,311.558 q 88.322,51.926 155.853,49.371 66.722,-5.672 115.187,-88.107 15.001,-25.515 24.459,-59.572 9.457,-34.056 13.491,-63.379 l 140.151,40.14 q -9.339,47.332 -27.219,100.207 -14.764,52.066 -41.304,97.209 -45.003,76.546 -99.712,115.692 -53.554,37.184 -114.388,46.318 -59.68,7.171 -126.639,-13.707 -66.959,-20.879 -137.618,-62.42 z m 946.022,-238.91 q 84.603,-40.679 149.58,-93.122 65.947,-54.502 108.643,-145.127 46.578,-98.864 24.555,-169.644 -22.024,-70.78 -87.933,-101.832 -39.133,-18.437 -77.672,-11.425 -38.539,7.011 -74.662,30.262 -37.212,20.22 -73.097,53.651 -35.884,33.43 -71.769,66.86 -43.767,44.818 -91.653,87.695 -49.945,41.906 -103.278,69.633 -54.421,24.697 -112.349,30.124 -57.927,5.428 -121.776,-24.654 -59.73,-28.141 -100.548,-75.056 -41.906,-49.946 -58.602,-110.666 -17.786,-63.749 -8.301,-137.302 7.426,-74.524 45.27,-154.85 44.637,-94.745 114.466,-157.486 70.799,-64.8 145.342,-100.152 l 69.258,130.786 q -63.393,33.054 -114.309,77.02 -50.916,43.967 -81.968,109.876 -44.637,94.744 -22.733,160.434 22.875,63.631 80.546,90.802 35.014,16.496 70.523,10.574 33.449,-6.893 68.601,-28.084 33.093,-22.161 68.007,-53.532 33.825,-34.4 70.68,-69.89 45.827,-43.847 93.712,-86.725 48.857,-44.936 104.249,-71.693 53.332,-27.726 115.379,-31.213 63.017,-5.546 133.045,27.446 61.79,29.112 103.697,79.057 42.877,47.886 61.751,114.666 19.845,64.72 9.509,145.422 -7.307,79.614 -49.033,168.179 -50.459,107.102 -135.2,185.469 -84.741,78.367 -178.435,122.314 z m 86.549,-888.28 q -127.387,-42.631 -216.581,-113.297 -90.63,-73.547 -140.926,-160.006 -50.295,-86.458 -61.702,-181.51 -11.406,-95.053 18.942,-185.735 30.348,-90.682 85.134,-146.775 54.787,-56.094 134.045,-106.398 l -182.095,-51.337 -403.752,-135.121 59.974,-179.205 1537.278,514.47 -49.134,146.819 -128.127,-26.073 -2.168,6.477 q 39.501,82.846 57.384,180.066 16.447,94.338 -14.624,187.179 -66.476,198.637 -248.718,269.698 -181.52,68.902 -444.93,-19.252 z m 59.26,-184.246 q 190,63.587 321.086,23.424 131.086,-40.162 177.331,-178.345 24.567,-73.409 11.699,-149.743 -15.028,-77.057 -66.76,-166.397 l -548.411,-183.533 q -82.855,46.7 -127.56,101.365 -46.141,51.784 -67.818,116.557 -20.954,62.614 -9.514,128.867 10.004,63.371 50.253,122.458 38.089,58.364 103.55,106.682 65.462,48.317 156.144,78.665 z m 571.733,-925.122 q -178.713,-35.187 -241.31,-212.267 -64.39,-179.755 -33.753,-535.722 -51.38,-10.117 -102.725,-8.623 -50.906,-0.741 -94.16,18.589 -42.815,17.096 -73.511,55.142 -32.929,37.606 -46.124,104.624 -18.913,96.058 0.556,185.75 19.908,87.458 51.832,161.038 l -141.848,48.649 q -34.192,-85.629 -57.318,-203.888 -25.361,-118.698 0.589,-250.499 39.145,-198.818 179.604,-263.984 138.224,-65.606 341.51,-25.581 l 665.706,131.07 -29.908,151.906 -132.646,-9.873 -0.88,4.468 q 49.39,90.942 78.269,191.769 27.085,98.153 7.293,198.679 -27.27,138.503 -125.724,214.259 -98.014,73.523 -245.452,44.494 z m 22.223,-183.586 q 93.824,18.473 144.59,-27.224 51.207,-47.931 67.04,-128.352 15.395,-78.187 -6.713,-154.475 -23.902,-78.963 -79.993,-171.224 l -301.579,-59.378 q -8.958,139.788 -2.858,238.45 6.1,98.663 28.173,163.342 22.513,62.445 62.353,95.815 37.607,32.93 88.987,43.046 z m -611.557,-998.12 5.085,-154.739 159.814,-10.695 0.224,-6.826 q -77.252,-75.436 -126.823,-161.352 -51.773,-88.266 -48.482,-188.391 4.187,-127.432 63.395,-196.106 57.006,-71.023 158.253,-101.867 -92.733,-89.612 -146.78,-177.953 -56.249,-90.692 -52.884,-193.092 5.608,-170.668 117.528,-249 111.994,-80.606 325.898,-73.577 l 700.876,23.031 -6.132,186.597 -675.845,-22.209 q -157.014,-5.16 -226.926,42.66 -72.188,47.744 -75.628,152.42 -4.113,125.157 161.545,283.229 l 801.001,26.321 -6.131,186.597 -675.845,-22.209 q -157.015,-5.159 -226.927,42.66 -72.188,47.744 -75.702,154.696 -4.113,125.157 161.545,283.228 l 801.001,26.322 -6.132,186.597 z"
     id="path4" /></g>
 </g>
</svg>
