<?xml version="1.0" encoding="UTF-8" standalone="no"?>
<!-- Created with Inkscape (http://www.inkscape.org/) -->

<svg
   xmlns:dc="http://purl.org/dc/elements/1.1/"
   xmlns:cc="http://creativecommons.org/ns#"
   xmlns:rdf="http://www.w3.org/1999/02/22-rdf-syntax-ns#"
   xmlns:svg="http://www.w3.org/2000/svg"
   xmlns="http://www.w3.org/2000/svg"
   xmlns:xlink="http://www.w3.org/1999/xlink"
   xmlns:sodipodi="http://sodipodi.sourceforge.net/DTD/sodipodi-0.dtd"
   xmlns:inkscape="http://www.inkscape.org/namespaces/inkscape"
   width="88.697296"
   height="88.697296"
   id="svg9350"
   version="1.1"
   inkscape:version="0.48.5 r10040"
   sodipodi:docname="stempel.svg">
  <defs
     id="defs9352">
    <linearGradient
       id="linearGradient10027">
      <stop
         id="stop10029"
         offset="0"
         style="stop-color:#555753;stop-opacity:1" />
      <stop
         id="stop10031"
         offset="1"
         style="stop-color:#000000;stop-opacity:0" />
    </linearGradient>
    <linearGradient
       id="linearGradient9893">
      <stop
         style="stop-color:#d3d7cf;stop-opacity:1"
         offset="0"
         id="stop9895" />
      <stop
         style="stop-color:#ffffff;stop-opacity:1;"
         offset="1"
         id="stop9897" />
    </linearGradient>
    <linearGradient
       id="linearGradient9885">
      <stop
         style="stop-color:#40423f;stop-opacity:1;"
         offset="0"
         id="stop9887" />
      <stop
         style="stop-color:#000000;stop-opacity:1;"
         offset="1"
         id="stop9889" />
    </linearGradient>
    <linearGradient
       inkscape:collect="always"
       xlink:href="#linearGradient9885"
       id="linearGradient9976"
       x1="310.23251"
       y1="-395.22055"
       x2="159.76445"
       y2="144.31961"
       gradientUnits="userSpaceOnUse" />
    <linearGradient
       inkscape:collect="always"
       xlink:href="#linearGradient9885"
       id="linearGradient9996"
       gradientUnits="userSpaceOnUse"
       x1="310.23251"
       y1="-395.22055"
       x2="159.76445"
       y2="144.31961" />
    <linearGradient
       inkscape:collect="always"
       xlink:href="#linearGradient10027"
       id="linearGradient10025"
       gradientUnits="userSpaceOnUse"
       x1="120.10515"
       y1="118.83782"
       x2="69.22979"
       y2="-138.27754" />
    <linearGradient
       inkscape:collect="always"
       xlink:href="#linearGradient9893"
       id="linearGradient10280"
       gradientUnits="userSpaceOnUse"
       gradientTransform="translate(0,-880)"
       x1="147.48734"
       y1="1003.5928"
       x2="426.97052"
       y2="533.599" />
    <linearGradient
       inkscape:collect="always"
       xlink:href="#linearGradient9885"
       id="linearGradient10282"
       gradientUnits="userSpaceOnUse"
       gradientTransform="translate(0,-6.016019)"
       x1="426.97052"
       y1="-340.38498"
       x2="147.48734"
       y2="129.60887" />
    <linearGradient
       inkscape:collect="always"
       xlink:href="#linearGradient9885"
       id="linearGradient10284"
       gradientUnits="userSpaceOnUse"
       gradientTransform="translate(3.6568542,538.59655)"
       x1="423.31366"
       y1="-882.99756"
       x2="143.83047"
       y2="-413.00369" />
    <linearGradient
       inkscape:collect="always"
       xlink:href="#linearGradient9893"
       id="linearGradient10286"
       gradientUnits="userSpaceOnUse"
       x1="147.48734"
       y1="123.59286"
       x2="426.97052"
       y2="-346.401" />
    <path
       transform="matrix(28.345764,0,0,28.345764,-4256.8273,-11436.715)"
       style="color:#000000;fill:none;stroke:none;stroke-width:8;marker:none;visibility:visible;display:inline;overflow:visible;enable-background:accumulate"
       d="m 130.98126,391.77451 c 17.03754,3.00418 34.46933,3.00418 51.50687,10e-6"
       id="path3919"
       inkscape:connector-curvature="0"
       sodipodi:nodetypes="cc" />
    <linearGradient
       inkscape:collect="always"
       xlink:href="#linearGradient9885"
       id="linearGradient10371"
       x1="426.97052"
       y1="-456.35025"
       x2="147.48734"
       y2="13.643602"
       gradientUnits="userSpaceOnUse" />
    <linearGradient
       inkscape:collect="always"
       xlink:href="#linearGradient9885"
       id="linearGradient10405"
       gradientUnits="userSpaceOnUse"
       x1="426.97052"
       y1="-456.35025"
       x2="147.48734"
       y2="13.643602" />
    <linearGradient
       inkscape:collect="always"
       xlink:href="#linearGradient9885"
       id="linearGradient293755"
       gradientUnits="userSpaceOnUse"
       x1="426.97052"
       y1="-456.35025"
       x2="147.48734"
       y2="13.643602"
       gradientTransform="matrix(0.69535795,0,0,0.69535795,74.04075,174.56348)" />
    <linearGradient
       inkscape:collect="always"
       xlink:href="#linearGradient9885"
       id="linearGradient3963"
       gradientUnits="userSpaceOnUse"
       x1="426.97052"
       y1="-456.35025"
       x2="147.48734"
       y2="13.643602" />
    <linearGradient
       inkscape:collect="always"
       xlink:href="#linearGradient9885"
       id="linearGradient3965"
       gradientUnits="userSpaceOnUse"
       gradientTransform="matrix(0.69535795,0,0,0.69535795,74.04075,174.56348)"
       x1="426.97052"
       y1="-456.35025"
       x2="147.48734"
       y2="13.643602" />
    <linearGradient
       inkscape:collect="always"
       xlink:href="#linearGradient9885"
       id="linearGradient3969"
       gradientUnits="userSpaceOnUse"
       gradientTransform="matrix(0.69535795,0,0,0.69535795,73.379272,1154.6256)"
       x1="426.97052"
       y1="-456.35025"
       x2="147.48734"
       y2="13.643602" />
    <linearGradient
       inkscape:collect="always"
       xlink:href="#linearGradient9885"
       id="linearGradient3975"
       gradientUnits="userSpaceOnUse"
       x1="426.97052"
       y1="-456.35025"
       x2="147.48734"
       y2="13.643602"
       gradientTransform="translate(-0.66147755,980.06215)" />
    <font
       horiz-adv-x="1024"
       id="font4140"
       inkscape:label="font 1"
       horiz-origin-x="0"
       horiz-origin-y="0"
       vert-origin-x="45"
       vert-origin-y="90"
       vert-adv-y="90">
      <font-face
         units-per-em="1024"
         id="font-face4142"
         font-family="SVGFont 1" />
      <missing-glyph
         d="M0,0h1000v1024h-1000z"
         id="missing-glyph4144" />
    </font>
  </defs>
  <sodipodi:namedview
     id="base"
     pagecolor="#ffffff"
     bordercolor="#666666"
     borderopacity="1.0"
     inkscape:pageopacity="0.0"
     inkscape:pageshadow="2"
     inkscape:zoom="3.390625"
     inkscape:cx="106.18701"
     inkscape:cy="-1.3703735"
     inkscape:document-units="mm"
     inkscape:current-layer="layer6"
     showgrid="false"
     inkscape:snap-bbox="true"
     inkscape:object-nodes="true"
     inkscape:window-width="1920"
     inkscape:window-height="1036"
     inkscape:window-x="0"
     inkscape:window-y="44"
     inkscape:window-maximized="0"
     inkscape:object-paths="false"
     inkscape:snap-intersection-paths="true"
     showborder="true"
     fit-margin-top="0"
     fit-margin-left="0"
     fit-margin-right="0"
     fit-margin-bottom="0"
     units="mm"
     inkscape:snap-midpoints="true"
     inkscape:snap-object-midpoints="true"
     inkscape:snap-center="true">
    <inkscape:grid
       type="xygrid"
       id="grid9358"
       empspacing="16"
       visible="true"
       enabled="true"
       snapvisiblegridlinesonly="true"
       originx="38.845373px"
       originy="-342.78424px" />
  </sodipodi:namedview>
  <metadata
     id="metadata9355">
    <rdf:RDF>
      <cc:Work
         rdf:about="">
        <dc:format>image/svg+xml</dc:format>
        <dc:type
           rdf:resource="http://purl.org/dc/dcmitype/StillImage" />
        <dc:title></dc:title>
      </cc:Work>
    </rdf:RDF>
  </metadata>
  <g
     inkscape:groupmode="layer"
     id="layer5"
     inkscape:label="kreis"
     style="display:inline">
    <path
       sodipodi:type="arc"
       style="fill:#666666;fill-opacity:0.34080721;stroke:#000000;stroke-width:0;stroke-linecap:round;stroke-linejoin:round;stroke-miterlimit:4;stroke-opacity:1;stroke-dasharray:none;stroke-dashoffset:0;display:inline"
       id="path4462"
       sodipodi:cx="306.72812"
       sodipodi:cy="618.16559"
       sodipodi:rx="35.391705"
       sodipodi:ry="35.391705"
       d="m 342.11982,618.16559 a 35.391705,35.391705 0 1 1 -70.78341,0 35.391705,35.391705 0 1 1 70.78341,0 z"
       transform="matrix(-1.251461,0,0,1.251461,428.1952,-729.24979)" />
  </g>
  <g
     inkscape:label="schrift-editierbar"
     inkscape:groupmode="layer"
     id="layer1"
     transform="translate(38.845373,-620.88037)"
     style="display:none">
    <path
       sodipodi:type="arc"
       style="fill:#666666;fill-opacity:0.34080721;stroke:#000000;stroke-width:0;stroke-linecap:round;stroke-linejoin:round;stroke-miterlimit:4;stroke-opacity:1;stroke-dasharray:none;stroke-dashoffset:0"
       id="path4131"
       sodipodi:cx="306.72812"
       sodipodi:cy="618.16559"
       sodipodi:rx="35.391705"
       sodipodi:ry="35.391705"
       d="m 342.11982,618.16559 a 35.391705,35.391705 0 1 1 -70.78341,0 35.391705,35.391705 0 1 1 70.78341,0 z"
       transform="matrix(0.85099349,0,0,0.85099349,-355.28164,145.52757)" />
    <text
       xml:space="preserve"
       style="font-size:40px;font-style:normal;font-variant:normal;font-weight:500;font-stretch:normal;line-height:125%;letter-spacing:0px;word-spacing:0px;fill:#000000;fill-opacity:1;stroke:none;font-family:Century Schoolbook L;-inkscape-font-specification:Century Schoolbook L Medium"
       id="text4133"
       sodipodi:linespacing="125%"
       transform="translate(99.651448,-6.406982)"><textPath
         xlink:href="#path4131"
         id="textPath4137"
         style="font-size:13px;font-style:normal;font-variant:normal;font-weight:bold;font-stretch:normal;font-family:Droid Arabic Kufi;-inkscape-font-specification:Droid Arabic Kufi Bold">CODER DOJO POTSDAM</textPath></text>
  </g>
  <g
     inkscape:groupmode="layer"
     id="layer6"
     inkscape:label="schrift-umriss">
    <path
       transform="matrix(0.85099349,0,0,0.85099349,-316.43627,-475.3528)"
       d="m 342.11982,618.16559 a 35.391705,35.391705 0 1 1 -70.78341,0 35.391705,35.391705 0 1 1 70.78341,0 z"
       sodipodi:ry="35.391705"
       sodipodi:rx="35.391705"
       sodipodi:cy="618.16559"
       sodipodi:cx="306.72812"
       id="path4473"
       style="display:inline;fill:#666666;fill-opacity:0.34080721000000003;stroke:#000000;stroke-width:0;stroke-linecap:round;stroke-linejoin:round;stroke-miterlimit:4;stroke-opacity:1;stroke-dasharray:none;stroke-dashoffset:0"
       sodipodi:type="arc" />
    <g
       transform="translate(138.49682,-627.28735)"
       style="font-size:40px;font-style:normal;font-variant:normal;font-weight:500;font-stretch:normal;line-height:125%;letter-spacing:0px;word-spacing:0px;fill:#000000;fill-opacity:1;stroke:none;display:inline;font-family:Century Schoolbook L;-inkscape-font-specification:Century Schoolbook L Medium"
       id="text4475">
      <path
         d="m -64.616761,680.30522 c -0.159445,-0.47955 -0.259481,-0.96893 -0.300109,-1.46815 -0.04062,-0.49922 -0.01942,-1.01004 0.06362,-1.53245 0.247783,-1.55888 0.878729,-2.72478 1.892841,-3.49769 1.018289,-0.77225 2.27344,-1.0398 3.765455,-0.80265 1.496185,0.23782 2.60652,0.88136 3.331006,1.93062 0.72865,1.04992 0.969088,2.35433 0.721314,3.91321 -0.08304,0.52241 -0.221271,1.01462 -0.414677,1.47665 -0.193423,0.46201 -0.440268,0.89626 -0.740538,1.30274 l -1.937108,-0.3079 c 0.376163,-0.39871 0.669839,-0.80408 0.881028,-1.21613 0.211177,-0.41207 0.354965,-0.85841 0.431366,-1.33903 0.136838,-0.86094 -0.03138,-1.58183 -0.504655,-2.16267 -0.473287,-0.58085 -1.194727,-0.94833 -2.16432,-1.10244 -0.965423,-0.15346 -1.76316,-0.0274 -2.393213,0.37803 -0.630056,0.40546 -1.013506,1.03867 -1.15035,1.89961 -0.07639,0.48061 -0.07809,0.94954 -0.0051,1.40678 0.07301,0.45722 0.226518,0.93368 0.460529,1.42937 l -1.937109,-0.3079"
         style="font-size:13px;font-weight:bold;font-family:Droid Arabic Kufi;-inkscape-font-specification:Droid Arabic Kufi Bold"
         id="path4483" />
      <path
         d="m -60.91616,689.81464 c 0.357673,-0.6533 0.393807,-1.29206 0.108401,-1.9163 -0.285415,-0.62425 -0.866118,-1.17617 -1.74211,-1.65578 -0.872285,-0.47759 -1.648261,-0.66845 -2.327929,-0.57259 -0.679669,0.0958 -1.198342,0.47042 -1.556021,1.12371 -0.359709,0.65699 -0.396858,1.29761 -0.11145,1.92186 0.285412,0.62423 0.864259,1.17514 1.736542,1.65273 0.875994,0.47961 1.653826,0.67149 2.333497,0.57564 0.679666,-0.0959 1.199355,-0.47229 1.55907,-1.12927 m 1.553407,0.8505 c -0.731619,1.33625 -1.687036,2.17367 -2.866253,2.51225 -1.179224,0.33856 -2.442533,0.13899 -3.789933,-0.59871 -1.343686,-0.73569 -2.190558,-1.69146 -2.54062,-2.86731 -0.350055,-1.17587 -0.159278,-2.43193 0.572332,-3.76819 0.729584,-1.33256 1.685001,-2.16998 2.866254,-2.51226 1.17922,-0.33857 2.440674,-0.14001 3.784364,0.59567 1.347395,0.7377 2.196124,1.69449 2.546189,2.87036 0.34802,1.17956 0.157242,2.43563 -0.572333,3.76819"
         style="font-size:13px;font-weight:bold;font-family:Droid Arabic Kufi;-inkscape-font-specification:Droid Arabic Kufi Bold"
         id="path4485" />
      <path
         d="m -68.371017,699.11188 -3.762376,-4.39139 -0.665216,0.56993 c -0.758408,0.64977 -1.175789,1.33336 -1.252144,2.05077 -0.07956,0.72014 0.187648,1.43854 0.801629,2.15518 0.611234,0.71341 1.275783,1.0858 1.993651,1.11718 0.717869,0.0314 1.457615,-0.27922 2.21924,-0.93174 l 0.665216,-0.56993 m 3.05767,-0.18729 -1.957085,1.67676 c -1.092628,0.93611 -1.973125,1.55396 -2.641494,1.85355 -0.66883,0.30553 -1.354145,0.43574 -2.055946,0.39061 -0.61551,-0.0355 -1.186929,-0.19511 -1.71426,-0.47888 -0.527325,-0.28379 -1.020889,-0.69401 -1.480693,-1.23068 -0.465302,-0.5431 -0.799102,-1.09857 -1.001402,-1.66639 -0.199535,-0.56462 -0.269632,-1.15376 -0.210293,-1.76742 0.06626,-0.70318 0.301869,-1.36478 0.706838,-1.98479 0.407732,-0.61681 1.15148,-1.38777 2.231248,-2.31287 l 1.957085,-1.67676 6.166002,7.19687"
         style="font-size:13px;font-weight:bold;font-family:Droid Arabic Kufi;-inkscape-font-specification:Droid Arabic Kufi Bold"
         id="path4487" />
      <path
         d="m -76.498469,707.12862 -6.120742,2.45629 -0.687951,-1.71428 3.852709,-1.54611 -0.657218,-1.6377 -3.622961,1.45392 -0.687951,-1.71428 3.622961,-1.45392 -0.808521,-2.01472 -3.982311,1.59813 -0.687951,-1.71428 6.250343,-2.5083 3.529593,8.79525"
         style="font-size:13px;font-weight:bold;font-family:Droid Arabic Kufi;-inkscape-font-specification:Droid Arabic Kufi Bold"
         id="path4489" />
      <path
         d="m -91.524848,706.87269 c -0.510878,0.0345 -0.869685,0.15411 -1.076423,0.35892 -0.210949,0.2051 -0.301754,0.52509 -0.272415,0.95998 0.02907,0.43065 0.16175,0.73132 0.398055,0.902 0.232093,0.17095 0.603578,0.2392 1.114456,0.20473 l 1.025987,-0.0692 -0.163673,-2.42563 -1.025987,0.0692 m 0.912314,-1.75388 -0.24145,-3.57829 2.438303,-0.16452 0.638025,9.45554 -3.723954,0.25128 c -1.245534,0.084 -2.171624,-0.0634 -2.778273,-0.44238 -0.610856,-0.37868 -0.946772,-1.0198 -1.007748,-1.92333 -0.04216,-0.62489 0.07523,-1.14814 0.35215,-1.56975 0.272716,-0.42134 0.706656,-0.74752 1.301822,-0.97854 -0.338673,-0.0535 -0.648017,-0.20652 -0.928032,-0.45907 -0.283937,-0.24805 -0.579395,-0.63529 -0.886373,-1.16171 l -1.504844,-2.59598 2.596634,-0.17522 1.311197,2.27186 c 0.264134,0.45722 0.522369,0.76426 0.774708,0.92113 0.248128,0.15715 0.57063,0.22234 0.96751,0.19556 l 0.690325,-0.0466"
         style="font-size:13px;font-weight:bold;font-family:Droid Arabic Kufi;-inkscape-font-specification:Droid Arabic Kufi Bold"
         id="path4491" />
      <path
         d="m -108.31014,706.67007 2.39908,-5.26158 -0.79704,-0.36342 c -0.90869,-0.41433 -1.70446,-0.50509 -2.38733,-0.27229 -0.6867,0.23104 -1.22581,0.77588 -1.61733,1.63452 -0.38974,0.85479 -0.44771,1.61436 -0.17393,2.27871 0.27381,0.66434 0.86698,1.20455 1.77952,1.62064 l 0.79703,0.36342 m 1.45728,2.69458 -2.3449,-1.06918 c -1.30913,-0.59692 -2.24027,-1.13543 -2.79342,-1.61553 -0.55874,-0.47802 -0.96538,-1.0448 -1.21994,-1.70037 -0.22696,-0.57323 -0.32276,-1.15875 -0.2874,-1.75653 0.0354,-0.5978 0.19967,-1.2182 0.49285,-1.86122 0.29671,-0.65072 0.66,-1.18736 1.08986,-1.60993 0.42812,-0.41871 0.93298,-0.73034 1.51458,-0.93489 0.66572,-0.23597 1.36501,-0.30082 2.0979,-0.19455 0.73114,0.11013 1.74358,0.46014 3.03731,1.05004 l 2.3449,1.06918 -3.93174,8.62298"
         style="font-size:13px;font-weight:bold;font-family:Droid Arabic Kufi;-inkscape-font-specification:Droid Arabic Kufi Bold"
         id="path4493" />
      <path
         d="m -121.24421,698.32956 c 0.52432,0.52898 1.12632,0.7456 1.80599,0.64987 0.6797,-0.0957 1.37419,-0.49513 2.0835,-1.19818 0.70631,-0.70007 1.11034,-1.38951 1.21209,-2.06832 0.10176,-0.67881 -0.10952,-1.2827 -0.63383,-1.81168 -0.52728,-0.53198 -1.13077,-0.7501 -1.81046,-0.65437 -0.67968,0.0957 -1.37267,0.49364 -2.07898,1.1937 -0.7093,0.70306 -1.11484,1.39398 -1.2166,2.07279 -0.10175,0.67881 0.11102,1.28421 0.63829,1.81619 m -1.25782,1.24672 c -1.07243,-1.082 -1.60295,-2.2364 -1.59154,-3.46321 0.0114,-1.22681 0.56266,-2.3809 1.65366,-3.46229 1.08802,-1.0784 2.24545,-1.61787 3.47231,-1.61843 1.22687,-5.4e-4 2.37652,0.54019 3.44896,1.62218 1.06947,1.079 1.59999,2.2334 1.59154,3.46321 -0.0114,1.22681 -0.56114,2.37942 -1.64915,3.45783 -1.09101,1.08138 -2.24994,1.62234 -3.47681,1.62289 -1.22984,-0.002 -2.37949,-0.54319 -3.44897,-1.62218"
         style="font-size:13px;font-weight:bold;font-family:Droid Arabic Kufi;-inkscape-font-specification:Droid Arabic Kufi Bold"
         id="path4495" />
      <path
         d="m -128.0673,692.23608 -1.20998,-2.12328 7.43425,-4.23651 c 1.02579,-0.58456 1.95162,-0.74198 2.77747,-0.47227 0.82376,0.26604 1.55725,0.96343 2.20048,2.09217 l 0.24514,0.43017 -1.60487,0.91456 -0.18857,-0.3309 c -0.25143,-0.4412 -0.56421,-0.70375 -0.93836,-0.78765 -0.37624,-0.0876 -0.80334,0.005 -1.28131,0.2772 l -7.43425,4.23651"
         style="font-size:13px;font-weight:bold;font-family:Droid Arabic Kufi;-inkscape-font-specification:Droid Arabic Kufi Bold"
         id="path4497" />
      <path
         d="m -131.04951,681.10095 c 0.18625,0.72113 0.59702,1.21163 1.2323,1.47151 0.63531,0.25988 1.43644,0.26495 2.40341,0.0152 0.96287,-0.24867 1.65931,-0.64051 2.08932,-1.17551 0.43001,-0.53501 0.55189,-1.16307 0.36565,-1.88421 -0.1873,-0.72522 -0.59859,-1.21777 -1.23389,-1.47766 -0.6353,-0.25987 -1.43438,-0.26547 -2.39726,-0.0168 -0.96696,0.24974 -1.66545,0.64211 -2.09547,1.17711 -0.43,0.53501 -0.55135,1.16512 -0.36406,1.89035 m -1.71474,0.44285 c -0.38093,-1.47504 -0.25732,-2.73948 0.37085,-3.79333 0.62819,-1.05383 1.68595,-1.77281 3.17327,-2.15694 1.48324,-0.38306 2.75482,-0.26565 3.81473,0.35221 1.05993,0.61787 1.78036,1.66433 2.1613,3.13936 0.37989,1.47095 0.25628,2.73539 -0.37085,3.79332 -0.62817,1.05385 -1.68388,1.7723 -3.16712,2.15536 -1.48732,0.38412 -2.76095,0.26725 -3.82088,-0.35062 -1.06096,-0.62197 -1.7814,-1.66842 -2.1613,-3.13936"
         style="font-size:13px;font-weight:bold;font-family:Droid Arabic Kufi;-inkscape-font-specification:Droid Arabic Kufi Bold"
         id="path4499" />
      <path
         d="m -133.58292,665.71208 0.95438,-3.94227 c 0.28378,-1.17219 0.76251,-2.00764 1.4362,-2.50637 0.67058,-0.50381 1.48708,-0.63923 2.44951,-0.40625 0.96655,0.234 1.63482,0.72887 2.00483,1.48459 0.36689,0.75064 0.40844,1.71205 0.12467,2.88424 l -0.37937,1.56704 3.19578,0.77365 -0.57502,2.37524 -9.21098,-2.22987 m 2.29629,-1.95853 2.57266,0.62281 0.31813,-1.31409 c 0.11152,-0.46065 0.0866,-0.84331 -0.0748,-1.14797 -0.16547,-0.30565 -0.45386,-0.50826 -0.86516,-0.60784 -0.41129,-0.0996 -0.75836,-0.0508 -1.0412,0.14633 -0.28283,0.19713 -0.48001,0.52602 -0.59153,0.98667 l -0.31813,1.31409"
         style="font-size:13px;font-weight:bold;font-family:Droid Arabic Kufi;-inkscape-font-specification:Droid Arabic Kufi Bold"
         id="path4501" />
      <path
         d="m -126.04924,650.76807 c -0.40832,0.6229 -0.49495,1.25679 -0.25991,1.90168 0.23505,0.6449 0.77019,1.24111 1.60543,1.78862 0.8317,0.54521 1.59011,0.79696 2.27524,0.75526 0.68512,-0.0417 1.23185,-0.37399 1.64017,-0.99688 0.41063,-0.62642 0.49843,-1.26209 0.26338,-1.90699 -0.23505,-0.64489 -0.76842,-1.23993 -1.60012,-1.78514 -0.83523,-0.54751 -1.59542,-0.80042 -2.28054,-0.75873 -0.68513,0.0417 -1.23301,0.37577 -1.64365,1.00218 m -1.48113,-0.97091 c 0.8352,-1.27408 1.85397,-2.03316 3.05631,-2.27724 1.20234,-0.24405 2.44586,0.055 3.73057,0.89714 1.28117,0.83985 2.04964,1.85972 2.30543,3.05962 0.25578,1.19991 -0.0339,2.4369 -0.86912,3.71099 -0.83289,1.27055 -1.85165,2.02963 -3.05631,2.27723 -1.20235,0.24407 -2.4441,-0.0538 -3.72527,-0.89366 -1.2847,-0.84216 -2.05495,-1.86319 -2.31074,-3.06309 -0.25345,-1.20344 0.0362,-2.44043 0.86913,-3.71099"
         style="font-size:13px;font-weight:bold;font-family:Droid Arabic Kufi;-inkscape-font-specification:Droid Arabic Kufi Bold"
         id="path4503" />
      <path
         d="m -122.01089,643.00658 6.89265,-5.36477 1.13456,1.45768 -2.47955,1.92991 4.68637,6.02105 -1.92854,1.50104 -4.68637,-6.02105 -2.48456,1.93382 -1.13456,-1.45768"
         style="font-size:13px;font-weight:bold;font-family:Droid Arabic Kufi;-inkscape-font-specification:Droid Arabic Kufi Bold"
         id="path4505" />
      <path
         d="m -105.13131,633.68389 0.70335,1.87851 c -0.56908,-0.0354 -1.10623,-0.0218 -1.61145,0.0408 -0.50524,0.0627 -0.96393,0.17114 -1.37609,0.32545 -0.54691,0.20478 -0.92295,0.43143 -1.12812,0.67995 -0.20518,0.24854 -0.24842,0.53133 -0.12971,0.84837 0.089,0.23779 0.24596,0.39141 0.47079,0.46086 0.2273,0.064 0.5906,0.0568 1.0899,-0.0217 l 1.04837,-0.16885 c 1.061,-0.17132 1.87523,-0.13277 2.44272,0.11565 0.56747,0.24844 0.99069,0.74519 1.26966,1.49024 0.3665,0.97889 0.34825,1.81716 -0.0548,2.51481 -0.40056,0.69222 -1.19728,1.26165 -2.39016,1.70828 -0.56276,0.21071 -1.14753,0.36866 -1.75432,0.47385 -0.60678,0.10518 -1.23286,0.15885 -1.87822,0.161 l -0.72338,-1.93201 c 0.67949,0.089 1.31172,0.11211 1.89668,0.0693 0.58744,-0.0482 1.12687,-0.16435 1.6183,-0.34836 0.49934,-0.18696 0.85062,-0.41337 1.05383,-0.67925 0.2032,-0.26586 0.24693,-0.55335 0.13119,-0.86248 -0.10387,-0.27741 -0.27515,-0.45729 -0.51383,-0.53963 -0.23473,-0.0838 -0.64384,-0.0843 -1.22734,-0.001 l -0.9592,0.13547 c -0.95895,0.14216 -1.72241,0.0823 -2.29038,-0.17948 -0.564,-0.26328 -0.97807,-0.74764 -1.24219,-1.45307 -0.3309,-0.88376 -0.30004,-1.67027 0.0926,-2.35952 0.39262,-0.68924 1.12395,-1.23418 2.19399,-1.63483 0.48745,-0.1825 1.00288,-0.33256 1.54628,-0.45017 0.5419,-0.12156 1.11575,-0.21215 1.72152,-0.27179"
         style="font-size:13px;font-weight:bold;font-family:Droid Arabic Kufi;-inkscape-font-specification:Droid Arabic Kufi Bold"
         id="path4507" />
      <path
         d="m -96.903672,633.88588 0.135264,5.78113 0.875737,-0.0205 c 0.998419,-0.0234 1.754138,-0.28866 2.267159,-0.79592 0.517238,-0.50735 0.764824,-1.23274 0.742757,-2.17617 -0.02198,-0.93919 -0.301008,-1.64803 -0.83708,-2.12651 -0.536084,-0.47847 -1.30545,-0.70598 -2.3081,-0.68253 l -0.875737,0.0205 m -2.486386,-1.7895 2.576443,-0.0603 c 1.438403,-0.0337 2.511172,0.045 3.218311,0.23582 0.711256,0.18655 1.32435,0.5193 1.839283,0.99827 0.454203,0.4169 0.795722,0.90205 1.024559,1.45543 0.228818,0.5534 0.351497,1.18335 0.368037,1.88986 0.01672,0.71498 -0.07621,1.35632 -0.278801,1.92404 -0.202705,0.56349 -0.52116,1.06408 -0.955368,1.50176 -0.496199,0.50263 -1.09724,0.86591 -1.803125,1.08984 -0.705998,0.2197 -1.769736,0.34618 -3.191217,0.37944 l -2.576443,0.0603 -0.221679,-9.47446"
         style="font-size:13px;font-weight:bold;font-family:Droid Arabic Kufi;-inkscape-font-specification:Droid Arabic Kufi Bold"
         id="path4509" />
      <path
         d="m -82.345087,641.97873 -3.624502,-1.21047 -1.118895,1.44663 -2.330038,-0.77816 6.331527,-7.87706 2.763533,0.92293 0.327442,10.10095 -2.330037,-0.77816 -0.01903,-1.82666 m -2.489532,-2.68519 2.462494,0.8224 -0.03385,-3.98653 -2.42864,3.16413"
         style="font-size:13px;font-weight:bold;font-family:Droid Arabic Kufi;-inkscape-font-specification:Droid Arabic Kufi Bold"
         id="path4511" />
      <path
         d="m -72.640035,637.98947 2.36956,2.01481 -1.641197,5.26187 4.939236,-2.45758 2.364724,2.01071 -6.139015,7.2199 -1.760244,-1.49672 4.490157,-5.28073 -4.973579,2.47836 -1.179944,-1.00329 1.646524,-5.30733 -4.490157,5.28073 -1.76508,-1.50083 6.139015,-7.2199"
         style="font-size:13px;font-weight:bold;font-family:Droid Arabic Kufi;-inkscape-font-specification:Droid Arabic Kufi Bold"
         id="path4513" />
    </g>
  </g>
  <g
     inkscape:groupmode="layer"
     id="layer4"
     inkscape:label="logo"
     style="display:inline">
    <path
       style="fill:#666666;fill-opacity:0.34080721;stroke:#000000;stroke-width:0;stroke-linecap:round;stroke-linejoin:round;stroke-miterlimit:4;stroke-opacity:1;stroke-dasharray:none;stroke-dashoffset:0"
       d="m 44.34375,17.8125 c -14.676859,0 -26.5625,11.885641 -26.5625,26.5625 0,14.676859 11.885641,26.5625 26.5625,26.5625 7.338429,0 13.28125,-5.942821 13.28125,-13.28125 0,-7.338429 -5.942821,-13.28125 -13.28125,-13.28125 -7.33843,0 -13.28125,-5.94282 -13.28125,-13.28125 0,-7.33843 5.94282,-13.28125 13.28125,-13.28125 z M 40.78125,24 l 0,14.15625 7.09375,0 0,-14.15625 -7.09375,0 z m 3.5625,26.5625 c 3.91564,0 7.09375,3.17811 7.09375,7.09375 0,3.91564 -3.17811,7.0625 -7.09375,7.0625 -3.915641,0 -7.09375,-3.14686 -7.09375,-7.0625 0,-3.91564 3.178109,-7.09375 7.09375,-7.09375 z"
       id="path4129-5"
       inkscape:connector-curvature="0" />
  </g>
</svg>
