<?xml version="1.0" encoding="UTF-8" standalone="no"?>
<!-- Created with Inkscape (http://www.inkscape.org/) -->

<svg
   xmlns:dc="http://purl.org/dc/elements/1.1/"
   xmlns:cc="http://creativecommons.org/ns#"
   xmlns:rdf="http://www.w3.org/1999/02/22-rdf-syntax-ns#"
   xmlns:svg="http://www.w3.org/2000/svg"
   xmlns="http://www.w3.org/2000/svg"
   xmlns:xlink="http://www.w3.org/1999/xlink"
   xmlns:sodipodi="http://sodipodi.sourceforge.net/DTD/sodipodi-0.dtd"
   xmlns:inkscape="http://www.inkscape.org/namespaces/inkscape"
   width="88.697296"
   height="88.697296"
   id="svg9350"
   version="1.1"
   inkscape:version="0.48.5 r10040"
   sodipodi:docname="stempel.svg">
  <defs
     id="defs9352">
    <linearGradient
       id="linearGradient10027">
      <stop
         id="stop10029"
         offset="0"
         style="stop-color:#555753;stop-opacity:1" />
      <stop
         id="stop10031"
         offset="1"
         style="stop-color:#000000;stop-opacity:0" />
    </linearGradient>
    <linearGradient
       id="linearGradient9893">
      <stop
         style="stop-color:#d3d7cf;stop-opacity:1"
         offset="0"
         id="stop9895" />
      <stop
         style="stop-color:#ffffff;stop-opacity:1;"
         offset="1"
         id="stop9897" />
    </linearGradient>
    <linearGradient
       id="linearGradient9885">
      <stop
         style="stop-color:#40423f;stop-opacity:1;"
         offset="0"
         id="stop9887" />
      <stop
         style="stop-color:#000000;stop-opacity:1;"
         offset="1"
         id="stop9889" />
    </linearGradient>
    <linearGradient
       inkscape:collect="always"
       xlink:href="#linearGradient9885"
       id="linearGradient9976"
       x1="310.23251"
       y1="-395.22055"
       x2="159.76445"
       y2="144.31961"
       gradientUnits="userSpaceOnUse" />
    <linearGradient
       inkscape:collect="always"
       xlink:href="#linearGradient9885"
       id="linearGradient9996"
       gradientUnits="userSpaceOnUse"
       x1="310.23251"
       y1="-395.22055"
       x2="159.76445"
       y2="144.31961" />
    <linearGradient
       inkscape:collect="always"
       xlink:href="#linearGradient10027"
       id="linearGradient10025"
       gradientUnits="userSpaceOnUse"
       x1="120.10515"
       y1="118.83782"
       x2="69.22979"
       y2="-138.27754" />
    <linearGradient
       inkscape:collect="always"
       xlink:href="#linearGradient9893"
       id="linearGradient10280"
       gradientUnits="userSpaceOnUse"
       gradientTransform="translate(0,-880)"
       x1="147.48734"
       y1="1003.5928"
       x2="426.97052"
       y2="533.599" />
    <linearGradient
       inkscape:collect="always"
       xlink:href="#linearGradient9885"
       id="linearGradient10282"
       gradientUnits="userSpaceOnUse"
       gradientTransform="translate(0,-6.016019)"
       x1="426.97052"
       y1="-340.38498"
       x2="147.48734"
       y2="129.60887" />
    <linearGradient
       inkscape:collect="always"
       xlink:href="#linearGradient9885"
       id="linearGradient10284"
       gradientUnits="userSpaceOnUse"
       gradientTransform="translate(3.6568542,538.59655)"
       x1="423.31366"
       y1="-882.99756"
       x2="143.83047"
       y2="-413.00369" />
    <linearGradient
       inkscape:collect="always"
       xlink:href="#linearGradient9893"
       id="linearGradient10286"
       gradientUnits="userSpaceOnUse"
       x1="147.48734"
       y1="123.59286"
       x2="426.97052"
       y2="-346.401" />
    <path
       transform="matrix(28.345764,0,0,28.345764,-4256.8273,-11436.715)"
       style="color:#000000;fill:none;stroke:none;stroke-width:8;marker:none;visibility:visible;display:inline;overflow:visible;enable-background:accumulate"
       d="m 130.98126,391.77451 c 17.03754,3.00418 34.46933,3.00418 51.50687,10e-6"
       id="path3919"
       inkscape:connector-curvature="0"
       sodipodi:nodetypes="cc" />
    <linearGradient
       inkscape:collect="always"
       xlink:href="#linearGradient9885"
       id="linearGradient10371"
       x1="426.97052"
       y1="-456.35025"
       x2="147.48734"
       y2="13.643602"
       gradientUnits="userSpaceOnUse" />
    <linearGradient
       inkscape:collect="always"
       xlink:href="#linearGradient9885"
       id="linearGradient10405"
       gradientUnits="userSpaceOnUse"
       x1="426.97052"
       y1="-456.35025"
       x2="147.48734"
       y2="13.643602" />
    <linearGradient
       inkscape:collect="always"
       xlink:href="#linearGradient9885"
       id="linearGradient293755"
       gradientUnits="userSpaceOnUse"
       x1="426.97052"
       y1="-456.35025"
       x2="147.48734"
       y2="13.643602"
       gradientTransform="matrix(0.69535795,0,0,0.69535795,74.04075,174.56348)" />
    <linearGradient
       inkscape:collect="always"
       xlink:href="#linearGradient9885"
       id="linearGradient3963"
       gradientUnits="userSpaceOnUse"
       x1="426.97052"
       y1="-456.35025"
       x2="147.48734"
       y2="13.643602" />
    <linearGradient
       inkscape:collect="always"
       xlink:href="#linearGradient9885"
       id="linearGradient3965"
       gradientUnits="userSpaceOnUse"
       gradientTransform="matrix(0.69535795,0,0,0.69535795,74.04075,174.56348)"
       x1="426.97052"
       y1="-456.35025"
       x2="147.48734"
       y2="13.643602" />
    <linearGradient
       inkscape:collect="always"
       xlink:href="#linearGradient9885"
       id="linearGradient3969"
       gradientUnits="userSpaceOnUse"
       gradientTransform="matrix(0.69535795,0,0,0.69535795,73.379272,1154.6256)"
       x1="426.97052"
       y1="-456.35025"
       x2="147.48734"
       y2="13.643602" />
    <linearGradient
       inkscape:collect="always"
       xlink:href="#linearGradient9885"
       id="linearGradient3975"
       gradientUnits="userSpaceOnUse"
       x1="426.97052"
       y1="-456.35025"
       x2="147.48734"
       y2="13.643602"
       gradientTransform="translate(-0.66147755,980.06215)" />
    <font
       horiz-adv-x="1024"
       id="font4140"
       inkscape:label="font 1"
       horiz-origin-x="0"
       horiz-origin-y="0"
       vert-origin-x="45"
       vert-origin-y="90"
       vert-adv-y="90">
      <font-face
         units-per-em="1024"
         id="font-face4142"
         font-family="SVGFont 1" />
      <missing-glyph
         d="M0,0h1000v1024h-1000z"
         id="missing-glyph4144" />
    </font>
  </defs>
  <sodipodi:namedview
     id="base"
     pagecolor="#ffffff"
     bordercolor="#666666"
     borderopacity="1.0"
     inkscape:pageopacity="0.0"
     inkscape:pageshadow="2"
     inkscape:zoom="9.5901357"
     inkscape:cx="62.272731"
     inkscape:cy="45.85887"
     inkscape:document-units="mm"
     inkscape:current-layer="layer1"
     showgrid="false"
     inkscape:snap-bbox="true"
     inkscape:object-nodes="true"
     inkscape:window-width="1920"
     inkscape:window-height="1036"
     inkscape:window-x="0"
     inkscape:window-y="44"
     inkscape:window-maximized="0"
     inkscape:object-paths="false"
     inkscape:snap-intersection-paths="true"
     showborder="true"
     fit-margin-top="0"
     fit-margin-left="0"
     fit-margin-right="0"
     fit-margin-bottom="0"
     units="mm"
     inkscape:snap-midpoints="true"
     inkscape:snap-object-midpoints="true"
     inkscape:snap-center="true">
    <inkscape:grid
       type="xygrid"
       id="grid9358"
       empspacing="16"
       visible="true"
       enabled="true"
       snapvisiblegridlinesonly="true"
       originx="138.61839px"
       originy="-336.4415px" />
  </sodipodi:namedview>
  <metadata
     id="metadata9355">
    <rdf:RDF>
      <cc:Work
         rdf:about="">
        <dc:format>image/svg+xml</dc:format>
        <dc:type
           rdf:resource="http://purl.org/dc/dcmitype/StillImage" />
        <dc:title></dc:title>
      </cc:Work>
    </rdf:RDF>
  </metadata>
  <g
     inkscape:label="stempel"
     inkscape:groupmode="layer"
     id="layer1"
     transform="translate(138.61839,-627.22311)"
     style="display:inline">
    <path
       sodipodi:type="arc"
       style="fill:#666666;fill-opacity:0.34080721;stroke:#000000;stroke-width:0;stroke-linecap:round;stroke-linejoin:round;stroke-miterlimit:4;stroke-opacity:1;stroke-dasharray:none;stroke-dashoffset:0"
       id="path4127"
       sodipodi:cx="306.72812"
       sodipodi:cy="618.16559"
       sodipodi:rx="35.391705"
       sodipodi:ry="35.391705"
       d="m 342.11982,618.16559 c 0,19.5463 -15.8454,35.3917 -35.3917,35.3917 -19.5463,0 -35.39171,-15.8454 -35.39171,-35.3917 0,-19.5463 15.84541,-35.39171 35.39171,-35.39171 19.5463,0 35.3917,15.84541 35.3917,35.39171 z"
       transform="matrix(1.251461,0,0,1.251461,-478.11629,-102.02668)" />
    <g
       id="g4401"
       inkscape:transform-center-x="-6.7319177">
      <path
         inkscape:transform-center-x="-6.641585"
         inkscape:connector-curvature="0"
         id="path4129"
         transform="translate(-135.06955,630.77095)"
         d="m 40.8125,14.25 c 7.33843,0 13.28125,5.94282 13.28125,13.28125 0,7.33843 -5.94282,13.28125 -13.28125,13.28125 -7.338429,0 -13.28125,5.942821 -13.28125,13.28125 0,7.338429 5.942821,13.28125 13.28125,13.28125 14.676859,0 26.5625,-11.885641 26.5625,-26.5625 C 67.375,26.135641 55.489359,14.25 40.8125,14.25 z"
         style="fill:#666666;fill-opacity:0.34080721;stroke:#000000;stroke-width:0;stroke-linecap:round;stroke-linejoin:round;stroke-miterlimit:4;stroke-opacity:1;stroke-dasharray:none;stroke-dashoffset:0" />
      <path
         inkscape:connector-curvature="0"
         id="path4390"
         d="m -94.257048,677.77809 c -3.91564,0 -7.086612,3.17097 -7.086612,7.08661 0,3.91564 3.170972,7.08661 7.086612,7.08661 3.915641,0 7.086612,-3.17097 7.086612,-7.08661 0,-3.91564 -3.170971,-7.08661 -7.086612,-7.08661 z"
         style="fill:#666666;fill-opacity:0.34080721;stroke:#000000;stroke-width:0;stroke-linecap:round;stroke-linejoin:round;stroke-miterlimit:4;stroke-opacity:1;stroke-dasharray:none;stroke-dashoffset:0" />
      <rect
         y="651.21558"
         x="-97.800362"
         height="14.173229"
         width="7.0866141"
         id="rect4395"
         style="fill:#000000;fill-opacity:0.34080721;stroke:#000000;stroke-width:0;stroke-linecap:round;stroke-linejoin:round;stroke-miterlimit:4;stroke-opacity:1;stroke-dasharray:none;stroke-dashoffset:0" />
    </g>
    <path
       transform="matrix(1.251461,0,0,1.251461,-478.11629,-102.02668)"
       d="m 342.11982,618.16559 c 0,19.5463 -15.8454,35.3917 -35.3917,35.3917 -19.5463,0 -35.39171,-15.8454 -35.39171,-35.3917 0,-19.5463 15.84541,-35.39171 35.39171,-35.39171 19.5463,0 35.3917,15.84541 35.3917,35.39171 z"
       sodipodi:ry="35.391705"
       sodipodi:rx="35.391705"
       sodipodi:cy="618.16559"
       sodipodi:cx="306.72812"
       id="path4406"
       style="fill:#666666;fill-opacity:0.34080721;stroke:#000000;stroke-width:0;stroke-linecap:round;stroke-linejoin:round;stroke-miterlimit:4;stroke-opacity:1;stroke-dasharray:none;stroke-dashoffset:0"
       sodipodi:type="arc" />
  </g>
  <g
     inkscape:groupmode="layer"
     id="layer3"
     inkscape:label="schrift"
     transform="translate(3.5488356,3.5478404)">
    <path
       style="font-size:13px;font-style:normal;font-variant:normal;font-weight:bold;font-stretch:normal;line-height:125%;letter-spacing:0px;word-spacing:0px;fill:#000000;fill-opacity:1;stroke:#000000;stroke-width:0;stroke-miterlimit:4;stroke-opacity:1;stroke-dasharray:none;font-family:Droid Arabic Kufi;-inkscape-font-specification:Droid Arabic Kufi Bold"
       d="m 38.25,0.71875 -2.5625,0.0625 -0.53125,0 0,0.53125 0.21875,9.5 0,0.53125 0.53125,0 2.5625,-0.0625 C 39.914449,11.247423 41.0157,11.122957 41.8125,10.875 42.593829,10.627137 43.285367,10.22187 43.84375,9.65625 44.324807,9.1713465 44.706075,8.612078 44.9375,7.96875 45.165822,7.3289241 45.268002,6.6135418 45.25,5.84375 45.232108,5.0794909 45.098618,4.3976533 44.84375,3.78125 44.588483,3.1639558 44.188189,2.5895884 43.6875,2.125 43.6808,2.11875 43.663,2.1312 43.65625,2.125 43.080417,1.5956618 42.373643,1.2045524 41.59375,1 40.797902,0.78524193 39.717453,0.6843694 38.25,0.71875 z m 13.53125,1.4375 -0.21875,0.28125 -6.3125,7.875 -0.46875,0.59375 0.71875,0.25 2.3125,0.78125 0.34375,0.125 0.21875,-0.3125 0.90625,-1.125 2.90625,0.96875 0.03125,1.4375 0,0.375 0.375,0.125 2.3125,0.78125 0.6875,0.25 0.03125,0 0.3125,0.28125 1.78125,1.5 0.40625,0.34375 0.34375,-0.40625 2.8125,-3.3125 -0.875,2.84375 -0.125,0.34375 0.28125,0.21875 1.1875,1 0.28125,0.21875 0.3125,-0.15625 2.625,-1.3125 -2.8125,3.3125 -0.34375,0.40625 0.40625,0.34375 1.75,1.5 L 64.375,22.03125 64.71875,21.625 70.875,14.40625 71.21875,14 70.8125,13.65625 68.4375,11.625 68.15625,11.40625 67.84375,11.5625 64.03125,13.46875 65.3125,9.375 65.4375,9.03125 65.15625,8.8125 l -2.375,-2 L 62.375,6.46875 62.03125,6.875 55.875,14.09375 l -0.25,0.3125 -0.03125,-0.625 -0.3125,-10.09375 0,-0.34375 -0.375,-0.125 -2.78125,-0.9375 -0.34375,-0.125 z m -21.5,0.1875 L 29.875,2.375 C 29.243964,2.4371276 28.652692,2.530867 28.09375,2.65625 27.53676,2.7768013 26.993014,2.9287169 26.46875,3.125 25.318486,3.555688 24.469893,4.2063582 24,5.03125 23.529159,5.8577765 23.50457,6.8231651 23.875,7.8125 c 0.300368,0.8022427 0.825574,1.4205844 1.53125,1.75 0.713321,0.3287731 1.550456,0.368781 2.5625,0.21875 l 0.96875,-0.125 c 0.550108,-0.078533 0.914949,-0.050457 0.96875,-0.03125 0.105238,0.036305 0.16378,0.071938 0.21875,0.21875 0.06291,0.168036 0.04273,0.237318 -0.0625,0.375 -0.11095,0.145167 -0.37138,0.334838 -0.8125,0.5 -0.436383,0.163398 -0.921157,0.267569 -1.46875,0.3125 -0.546935,0.04003 -1.167451,0.02199 -1.8125,-0.0625 l -0.875,-0.125 0.3125,0.84375 0.71875,1.90625 0.125,0.34375 0.375,0 c 0.671022,-0.0022 1.357211,-0.04483 2,-0.15625 0.635962,-0.110247 1.247642,-0.276804 1.84375,-0.5 1.262968,-0.472872 2.170031,-1.097251 2.65625,-1.9375 C 33.613729,10.497795 33.622458,9.4532692 33.21875,8.375 32.903923,7.5341873 32.375468,6.8773757 31.65625,6.5625 30.926762,6.2431652 30.014573,6.2585387 28.90625,6.4375 L 27.875,6.59375 C 27.403731,6.667843 27.091537,6.673225 27.03125,6.65625 26.96265,6.63506 26.95197,6.622151 26.90625,6.5 26.83658,6.3139398 26.83547,6.3110874 26.9375,6.1875 27.045737,6.0563933 27.347163,5.8421877 27.84375,5.65625 28.202362,5.521988 28.615037,5.434408 29.09375,5.375 29.576393,5.315197 30.098978,5.279778 30.625,5.3125 l 0.8125,0.0625 -0.28125,-0.78125 -0.71875,-1.875 -0.15625,-0.375 z m 8.40625,1.28125 0.34375,0 0.03125,0 C 39.954812,3.610546 40.595681,3.8266336 41,4.1875 c 0.411926,0.3676715 0.636644,0.8810174 0.65625,1.71875 0.01968,0.8413339 -0.197835,1.4241537 -0.59375,1.8125 -0.393899,0.3894756 -0.959302,0.6035387 -1.875,0.625 l -0.03125,0 -0.3125,0 L 38.6875,3.625 z m -18.65625,2.5 -0.40625,0.34375 -6.875,5.375 -0.4375,0.3125 0.34375,0.40625 1.125,1.4375 0.3125,0.4375 0.40625,-0.34375 2.09375,-1.625 4.375,5.625 0.3125,0.4375 0.4375,-0.34375 1.90625,-1.5 L 24.03125,16.375 23.6875,15.96875 19.34375,10.375 21.40625,8.78125 21.84375,8.4375 21.5,8 20.34375,6.53125 20.03125,6.125 z M 52.125,6.9375 52.15625,8.625 51.125,8.28125 l 1,-1.34375 z M 11.5,16.125 c -0.359417,-0.0081 -0.675817,0.02795 -1,0.09375 C 9.1437094,16.494083 7.9849083,17.390557 7.09375,18.75 6.2051599,20.105465 5.839149,21.517713 6.125,22.875 c 0.2884438,1.353078 1.1948147,2.478441 2.5625,3.375 1.370313,0.898297 2.773893,1.243017 4.125,0.96875 1.359147,-0.279353 2.48934,-1.180201 3.375,-2.53125 0.888534,-1.355419 1.257168,-2.740729 0.96875,-4.09375 -0.288623,-1.353917 -1.198117,-2.480601 -2.5625,-3.375 C 13.573639,16.550057 12.543358,16.148462 11.5,16.125 z m -0.8125,3.40625 c 0.535719,-0.0326 1.196703,0.150158 1.96875,0.65625 0.770474,0.505074 1.191693,1.028323 1.375,1.53125 0.184255,0.505536 0.148996,0.924172 -0.1875,1.4375 -0.340331,0.519174 -0.689498,0.717787 -1.21875,0.75 C 12.090572,23.938778 11.424498,23.753615 10.65625,23.25 9.8769008,22.739127 9.4285658,22.208676 9.25,21.71875 9.0715395,21.2291 9.1281687,20.800813 9.46875,20.28125 c 0.3430395,-0.523289 0.687749,-0.717681 1.21875,-0.75 z M 5.65625,27.4375 C 4.8718797,27.394484 4.1539164,27.618165 3.5625,28.0625 2.7594518,28.656993 2.2087966,29.625292 1.90625,30.875 l -0.9375,3.9375 -0.09375,0.53125 0.5,0.125 9.1875,2.21875 0.5,0.09375 0.15625,-0.5 0.59375,-2.375 L 11.9375,34.375 11.40625,34.25 8.6875,33.625 8.96875,32.59375 9,32.59375 C 9.3025788,31.343865 9.2528045,30.244593 8.8125,29.34375 8.3659629,28.431729 7.5086727,27.821829 6.4375,27.5625 6.1971736,27.504323 5.9456318,27.45337 5.65625,27.4375 z m -0.4375,3.59375 c 0.1108617,-0.01558 0.2303401,-0.0038 0.375,0.03125 0.2945852,0.07132 0.4422879,0.179423 0.53125,0.34375 0.099039,0.186947 0.120382,0.381827 0.03125,0.75 l 0.03125,0 L 5.96875,32.9375 4.4375,32.5625 4.625,31.78125 C 4.7153,31.408252 4.8361427,31.239207 5,31.125 5.082419,31.06756 5.1303327,31.04368 5.21875,31.03125 z M 74.8125,41.625 c -1.124473,0.01244 -2.169673,0.315347 -3.03125,0.96875 -1.137323,0.866816 -1.831092,2.191287 -2.09375,3.84375 -0.08937,0.562216 -0.106639,1.113777 -0.0625,1.65625 0.04299,0.528245 0.135897,1.062596 0.3125,1.59375 L 70.03125,50 l 0.3125,0.0625 1.9375,0.3125 1,0.15625 -0.4375,-0.90625 c -0.209482,-0.443733 -0.308317,-0.894904 -0.375,-1.3125 -0.06449,-0.40398 -0.0676,-0.793426 0,-1.21875 0.118718,-0.746904 0.406382,-1.24082 0.90625,-1.5625 0.503438,-0.323955 1.12188,-0.420833 2,-0.28125 0.873954,0.138909 1.500554,0.477954 1.875,0.9375 0.376334,0.461867 0.494376,0.967673 0.375,1.71875 -0.06757,0.425072 -0.189055,0.824665 -0.375,1.1875 -0.186793,0.36445 -0.436472,0.728306 -0.78125,1.09375 l -0.71875,0.75 1.03125,0.15625 1.9375,0.28125 0.3125,0.03125 0.1875,-0.25 c 0.327027,-0.442702 0.574659,-0.881537 0.78125,-1.375 0.207204,-0.494992 0.377495,-1.050909 0.46875,-1.625 0.263229,-1.656114 0.0022,-3.138596 -0.8125,-4.3125 C 78.844193,42.667663 77.572587,41.942431 75.96875,41.6875 75.551824,41.62123 75.167081,41.62108 74.8125,41.625 z M 7.71875,44.0625 C 7.4480045,44.04941 7.1573336,44.0665 6.875,44.09375 6.5083025,44.12911 6.1235998,44.207944 5.71875,44.3125 c -1.5845201,0.409234 -2.7939991,1.190637 -3.5,2.375 -0.7091284,1.18967 -0.8130406,2.643572 -0.40625,4.21875 0.4052458,1.569077 1.1826621,2.769762 2.375,3.46875 1.1952056,0.696727 2.6369823,0.783512 4.21875,0.375 1.5789588,-0.40778 2.820858,-1.18321 3.53125,-2.375 0.708756,-1.195629 0.778604,-2.624728 0.375,-4.1875 C 11.906285,46.614605 11.130016,45.413909 9.9375,44.71875 9.2722061,44.330926 8.5309865,44.101772 7.71875,44.0625 z M 7.8125,47.625 c 0.3531242,0.0025 0.6338402,0.0576 0.875,0.15625 0.4987461,0.204028 0.7848463,0.502679 0.9375,1.09375 0.1517867,0.587733 0.05013,1.025203 -0.28125,1.4375 -0.3288266,0.409112 -0.9136205,0.767856 -1.8125,1 -0.9012741,0.232782 -1.6083515,0.198557 -2.09375,0 C 4.946052,51.111459 4.6862551,50.818905 4.53125,50.21875 4.3746389,49.612316 4.4566587,49.18511 4.78125,48.78125 5.117237,48.363239 5.7008962,47.9806 6.59375,47.75 7.0185414,47.640295 7.4466178,47.622436 7.8125,47.625 z m 63,4.34375 c -0.347304,0.01992 -0.700313,0.09248 -1.03125,0.1875 -1.337032,0.387419 -2.381078,1.365424 -3.15625,2.78125 -0.777221,1.419568 -1.020918,2.82632 -0.625,4.15625 0.396023,1.330233 1.382007,2.404282 2.8125,3.1875 1.434767,0.785533 2.860241,1.006061 4.1875,0.625 1.325521,-0.380587 2.405681,-1.322064 3.1875,-2.75 0.780064,-1.424777 0.985201,-2.860738 0.59375,-4.1875 -0.39578,-1.329427 -1.378533,-2.402401 -2.8125,-3.1875 -1.071943,-0.586897 -2.123363,-0.871752 -3.15625,-0.8125 z m -56,2 c -0.600544,0.0659 -1.217226,0.299217 -1.84375,0.65625 l -7.4375,4.25 -0.46875,0.28125 0.25,0.4375 1.21875,2.125 0.28125,0.46875 0.4375,-0.25 7.4375,-4.25 c 0.406686,-0.231604 0.700611,-0.266629 0.90625,-0.21875 0.182825,0.041 0.386784,0.168075 0.59375,0.53125 l 0,0.03125 0.1875,0.3125 0.28125,0.4375 0.4375,-0.25 1.59375,-0.90625 0.4375,-0.25 -0.21875,-0.46875 -0.21875,-0.4375 c -0.684697,-1.201507 -1.538401,-2.023101 -2.53125,-2.34375 -0.238369,-0.07785 -0.481596,-0.139045 -0.75,-0.15625 -0.196954,-0.01262 -0.393569,-0.02197 -0.59375,0 z m 55.875,1.4375 c 0.442692,0.02889 0.989016,0.200148 1.59375,0.53125 0.808503,0.442659 1.274082,0.91213 1.5,1.40625 0.225098,0.492335 0.19925,0.902326 -0.09375,1.4375 -0.299481,0.54697 -0.643387,0.802636 -1.15625,0.875 C 72.014119,59.729178 71.315534,59.571508 70.5,59.125 69.695492,58.684518 69.225371,58.211663 69,57.71875 c -0.225829,-0.493938 -0.201644,-0.897978 0.09375,-1.4375 0.293684,-0.536405 0.629388,-0.769488 1.15625,-0.84375 0.157487,-0.02221 0.31527,-0.03923 0.4375,-0.03125 z m -54.59375,4.3125 c -1.38441,6.32e-4 -2.686,0.633737 -3.84375,1.78125 -1.162159,1.151922 -1.799643,2.460111 -1.8125,3.84375 -0.01287,1.38377 0.605825,2.689365 1.75,3.84375 1.142971,1.153134 2.457723,1.778996 3.84375,1.78125 1.383564,-6.2e-4 2.683201,-0.630945 3.84375,-1.78125 1.159369,-1.149139 1.799635,-2.459255 1.8125,-3.84375 0.0095,-1.385584 -0.608584,-2.692163 -1.75,-3.84375 -1.145782,-1.155985 -2.459749,-1.781859 -3.84375,-1.78125 z m 47.5625,0.5 -0.40625,0.34375 -1.96875,1.65625 c -1.100475,0.942841 -1.855858,1.7467 -2.3125,2.4375 -0.447587,0.685259 -0.73763,1.424201 -0.8125,2.21875 -0.06671,0.689867 0.02751,1.370424 0.25,2 0.225897,0.634053 0.588892,1.25448 1.09375,1.84375 0.494579,0.577258 1.033856,1.025615 1.625,1.34375 0.600942,0.323382 1.255393,0.491909 1.9375,0.53125 0.781629,0.05026 1.563354,-0.09528 2.3125,-0.4375 l 0,0.03125 c 0.751659,-0.336924 1.666046,-0.982048 2.78125,-1.9375 L 70.09375,68.5625 70.5,68.21875 70.15625,67.8125 64,60.625 63.65625,60.21875 z M 16.53125,63 c 0.525162,-0.07397 0.939366,0.06048 1.375,0.5 0.437331,0.441226 0.577211,0.828697 0.5,1.34375 -0.07842,0.523197 -0.405896,1.130447 -1.0625,1.78125 -0.659464,0.653644 -1.263919,0.989661 -1.78125,1.0625 -0.523405,0.07372 -0.942844,-0.064 -1.375,-0.5 -0.433393,-0.437265 -0.548578,-0.811189 -0.46875,-1.34375 0.07898,-0.526857 0.408281,-1.164036 1.0625,-1.8125 0.656203,-0.650396 1.220399,-0.956681 1.75,-1.03125 z m 46.34375,1.6875 3.0625,3.59375 -0.25,0.21875 c -0.697043,0.597189 -1.29751,0.836393 -1.84375,0.8125 -0.545172,-0.02383 -1.078085,-0.29916 -1.625,-0.9375 -0.545419,-0.636614 -0.718392,-1.187522 -0.65625,-1.75 0.05855,-0.550083 0.367175,-1.091777 1.0625,-1.6875 l 0.25,-0.25 z m -7.5625,2.1875 -0.46875,0.1875 -6.25,2.5 -0.5,0.21875 0.1875,0.46875 0.6875,1.71875 0.21875,0.5 0.46875,-0.1875 3.53125,-1.40625 0.40625,1.03125 -3.125,1.25 -0.5,0.21875 0.1875,0.46875 0.6875,1.71875 0.21875,0.5 0.46875,-0.1875 3.125,-1.28125 0.28125,0.65625 -3.375,1.34375 -0.5,0.1875 0.1875,0.5 L 51.9375,79 52.15625,79.5 52.625,79.3125 58.75,76.84375 59.25,76.625 59.0625,76.15625 55.53125,67.375 55.3125,66.875 z M 26.21875,67.25 c -0.204297,-0.005 -0.396134,0.01292 -0.59375,0.03125 -0.385665,0.03576 -0.774121,0.114551 -1.15625,0.25 -0.654129,0.230059 -1.2094,0.594909 -1.6875,1.0625 -0.486885,0.478628 -0.869167,1.083108 -1.1875,1.78125 -0.312765,0.685974 -0.522361,1.353429 -0.5625,2.03125 -0.03975,0.671926 0.05565,1.351269 0.3125,2 0.292237,0.752599 0.797346,1.385313 1.40625,1.90625 0.622026,0.53988 1.570828,1.078591 2.90625,1.6875 L 28,79.0625 28.46875,79.28125 28.6875,78.8125 32.625,70.1875 32.875,69.71875 32.375,69.5 30.03125,68.4375 C 28.71763,67.838531 27.704957,67.437515 26.875,67.3125 l -0.03125,0 C 26.639805,67.282925 26.423047,67.255 26.21875,67.25 z M 47.15625,70.03125 46.625,70.0625 44.1875,70.25 43.65625,70.28125 43.6875,70.8125 43.90625,73.84375 43.75,73.875 c -0.01375,9.28e-4 -0.01791,-5.77e-4 -0.03125,0 -0.276944,0.01198 -0.484106,-0.03577 -0.625,-0.125 C 42.954779,73.663607 42.729467,73.420457 42.5,73.03125 L 42.5,73 41.1875,70.75 41,70.4375 l -0.3125,0.03125 -2.59375,0.1875 -0.84375,0.0625 0.40625,0.75 1.5,2.59375 c 0.322527,0.553085 0.644852,0.97099 1,1.28125 0.09071,0.08181 0.212773,0.08841 0.3125,0.15625 -0.264781,0.194031 -0.606275,0.323417 -0.78125,0.59375 -0.351032,0.534445 -0.485124,1.169123 -0.4375,1.875 0.06844,1.014126 0.478219,1.86531 1.25,2.34375 0.762668,0.476447 1.790243,0.61916 3.09375,0.53125 l 3.71875,-0.25 0.53125,-0.03125 -0.03125,-0.53125 -0.625,-9.46875 -0.03125,-0.53125 z m -20.59375,0.375 c 0.422039,-0.04054 0.968077,0.05846 1.59375,0.34375 l 0,0.03125 0.3125,0.125 L 26.5,75.21875 26.1875,75.0625 c -0.832599,-0.37964 -1.290548,-0.835561 -1.5,-1.34375 -0.212223,-0.514978 -0.221004,-1.116132 0.125,-1.875 0.348618,-0.764552 0.780158,-1.164644 1.3125,-1.34375 0.151613,-0.05169 0.313492,-0.08184 0.4375,-0.09375 z m 17.5,6.1875 0.09375,1.375 L 43.6875,78 c -0.436449,0.02945 -0.707832,-0.07092 -0.78125,-0.125 -0.07401,-0.05346 -0.165066,-0.167651 -0.1875,-0.5 -0.0228,-0.338016 0.03826,-0.446914 0.125,-0.53125 0.08017,-0.07942 0.285299,-0.189479 0.71875,-0.21875 l 0.5,-0.03125 z"
       id="path4234"
       inkscape:connector-curvature="0" />
  </g>
  <g
     inkscape:groupmode="layer"
     id="layer2"
     inkscape:label="schrift-quelle"
     style="display:none"
     transform="translate(3.5488356,3.5478404)">
    <text
       transform="translate(135.06955,-630.77095)"
       sodipodi:linespacing="125%"
       id="text4159"
       style="font-size:40px;font-style:normal;font-variant:normal;font-weight:500;font-stretch:normal;line-height:125%;letter-spacing:0px;word-spacing:0px;fill:#800080;fill-opacity:1;stroke:none;display:inline;font-family:Century Schoolbook L;-inkscape-font-specification:Century Schoolbook L Medium"
       xml:space="preserve"
       x="-2.6504059"
       y="-2.6470604">CODER DOJO POTSDAM</text>
  </g>
</svg>
