<?xml version="1.0" encoding="UTF-8" standalone="no"?>
<!-- Created with Inkscape (http://www.inkscape.org/) -->

<svg
   xmlns:dc="http://purl.org/dc/elements/1.1/"
   xmlns:cc="http://creativecommons.org/ns#"
   xmlns:rdf="http://www.w3.org/1999/02/22-rdf-syntax-ns#"
   xmlns:svg="http://www.w3.org/2000/svg"
   xmlns="http://www.w3.org/2000/svg"
   xmlns:xlink="http://www.w3.org/1999/xlink"
   xmlns:sodipodi="http://sodipodi.sourceforge.net/DTD/sodipodi-0.dtd"
   xmlns:inkscape="http://www.inkscape.org/namespaces/inkscape"
   width="88.697296"
   height="88.697296"
   id="svg9350"
   version="1.1"
   inkscape:version="0.48.5 r10040"
   sodipodi:docname="stempel.svg">
  <defs
     id="defs9352">
    <linearGradient
       id="linearGradient10027">
      <stop
         id="stop10029"
         offset="0"
         style="stop-color:#555753;stop-opacity:1" />
      <stop
         id="stop10031"
         offset="1"
         style="stop-color:#000000;stop-opacity:0" />
    </linearGradient>
    <linearGradient
       id="linearGradient9893">
      <stop
         style="stop-color:#d3d7cf;stop-opacity:1"
         offset="0"
         id="stop9895" />
      <stop
         style="stop-color:#ffffff;stop-opacity:1;"
         offset="1"
         id="stop9897" />
    </linearGradient>
    <linearGradient
       id="linearGradient9885">
      <stop
         style="stop-color:#40423f;stop-opacity:1;"
         offset="0"
         id="stop9887" />
      <stop
         style="stop-color:#000000;stop-opacity:1;"
         offset="1"
         id="stop9889" />
    </linearGradient>
    <linearGradient
       inkscape:collect="always"
       xlink:href="#linearGradient9885"
       id="linearGradient9976"
       x1="310.23251"
       y1="-395.22055"
       x2="159.76445"
       y2="144.31961"
       gradientUnits="userSpaceOnUse" />
    <linearGradient
       inkscape:collect="always"
       xlink:href="#linearGradient9885"
       id="linearGradient9996"
       gradientUnits="userSpaceOnUse"
       x1="310.23251"
       y1="-395.22055"
       x2="159.76445"
       y2="144.31961" />
    <linearGradient
       inkscape:collect="always"
       xlink:href="#linearGradient10027"
       id="linearGradient10025"
       gradientUnits="userSpaceOnUse"
       x1="120.10515"
       y1="118.83782"
       x2="69.22979"
       y2="-138.27754" />
    <linearGradient
       inkscape:collect="always"
       xlink:href="#linearGradient9893"
       id="linearGradient10280"
       gradientUnits="userSpaceOnUse"
       gradientTransform="translate(0,-880)"
       x1="147.48734"
       y1="1003.5928"
       x2="426.97052"
       y2="533.599" />
    <linearGradient
       inkscape:collect="always"
       xlink:href="#linearGradient9885"
       id="linearGradient10282"
       gradientUnits="userSpaceOnUse"
       gradientTransform="translate(0,-6.016019)"
       x1="426.97052"
       y1="-340.38498"
       x2="147.48734"
       y2="129.60887" />
    <linearGradient
       inkscape:collect="always"
       xlink:href="#linearGradient9885"
       id="linearGradient10284"
       gradientUnits="userSpaceOnUse"
       gradientTransform="translate(3.6568542,538.59655)"
       x1="423.31366"
       y1="-882.99756"
       x2="143.83047"
       y2="-413.00369" />
    <linearGradient
       inkscape:collect="always"
       xlink:href="#linearGradient9893"
       id="linearGradient10286"
       gradientUnits="userSpaceOnUse"
       x1="147.48734"
       y1="123.59286"
       x2="426.97052"
       y2="-346.401" />
    <path
       transform="matrix(28.345764,0,0,28.345764,-4256.8273,-11436.715)"
       style="color:#000000;fill:none;stroke:none;stroke-width:8;marker:none;visibility:visible;display:inline;overflow:visible;enable-background:accumulate"
       d="m 130.98126,391.77451 c 17.03754,3.00418 34.46933,3.00418 51.50687,10e-6"
       id="path3919"
       inkscape:connector-curvature="0"
       sodipodi:nodetypes="cc" />
    <linearGradient
       inkscape:collect="always"
       xlink:href="#linearGradient9885"
       id="linearGradient10371"
       x1="426.97052"
       y1="-456.35025"
       x2="147.48734"
       y2="13.643602"
       gradientUnits="userSpaceOnUse" />
    <linearGradient
       inkscape:collect="always"
       xlink:href="#linearGradient9885"
       id="linearGradient10405"
       gradientUnits="userSpaceOnUse"
       x1="426.97052"
       y1="-456.35025"
       x2="147.48734"
       y2="13.643602" />
    <linearGradient
       inkscape:collect="always"
       xlink:href="#linearGradient9885"
       id="linearGradient293755"
       gradientUnits="userSpaceOnUse"
       x1="426.97052"
       y1="-456.35025"
       x2="147.48734"
       y2="13.643602"
       gradientTransform="matrix(0.69535795,0,0,0.69535795,74.04075,174.56348)" />
    <linearGradient
       inkscape:collect="always"
       xlink:href="#linearGradient9885"
       id="linearGradient3963"
       gradientUnits="userSpaceOnUse"
       x1="426.97052"
       y1="-456.35025"
       x2="147.48734"
       y2="13.643602" />
    <linearGradient
       inkscape:collect="always"
       xlink:href="#linearGradient9885"
       id="linearGradient3965"
       gradientUnits="userSpaceOnUse"
       gradientTransform="matrix(0.69535795,0,0,0.69535795,74.04075,174.56348)"
       x1="426.97052"
       y1="-456.35025"
       x2="147.48734"
       y2="13.643602" />
    <linearGradient
       inkscape:collect="always"
       xlink:href="#linearGradient9885"
       id="linearGradient3969"
       gradientUnits="userSpaceOnUse"
       gradientTransform="matrix(0.69535795,0,0,0.69535795,73.379272,1154.6256)"
       x1="426.97052"
       y1="-456.35025"
       x2="147.48734"
       y2="13.643602" />
    <linearGradient
       inkscape:collect="always"
       xlink:href="#linearGradient9885"
       id="linearGradient3975"
       gradientUnits="userSpaceOnUse"
       x1="426.97052"
       y1="-456.35025"
       x2="147.48734"
       y2="13.643602"
       gradientTransform="translate(-0.66147755,980.06215)" />
    <font
       horiz-adv-x="1024"
       id="font4140"
       inkscape:label="font 1"
       horiz-origin-x="0"
       horiz-origin-y="0"
       vert-origin-x="45"
       vert-origin-y="90"
       vert-adv-y="90">
      <font-face
         units-per-em="1024"
         id="font-face4142"
         font-family="SVGFont 1" />
      <missing-glyph
         d="M0,0h1000v1024h-1000z"
         id="missing-glyph4144" />
    </font>
  </defs>
  <sodipodi:namedview
     id="base"
     pagecolor="#ffffff"
     bordercolor="#666666"
     borderopacity="1.0"
     inkscape:pageopacity="0.0"
     inkscape:pageshadow="2"
     inkscape:zoom="9.5901357"
     inkscape:cx="62.272731"
     inkscape:cy="45.85887"
     inkscape:document-units="mm"
     inkscape:current-layer="layer1"
     showgrid="false"
     inkscape:snap-bbox="true"
     inkscape:object-nodes="true"
     inkscape:window-width="1920"
     inkscape:window-height="1036"
     inkscape:window-x="0"
     inkscape:window-y="44"
     inkscape:window-maximized="0"
     inkscape:object-paths="false"
     inkscape:snap-intersection-paths="true"
     showborder="true"
     fit-margin-top="0"
     fit-margin-left="0"
     fit-margin-right="0"
     fit-margin-bottom="0"
     units="mm"
     inkscape:snap-midpoints="true"
     inkscape:snap-object-midpoints="true"
     inkscape:snap-center="true">
    <inkscape:grid
       type="xygrid"
       id="grid9358"
       empspacing="16"
       visible="true"
       enabled="true"
       snapvisiblegridlinesonly="true"
       originx="138.61839px"
       originy="-336.4415px" />
  </sodipodi:namedview>
  <metadata
     id="metadata9355">
    <rdf:RDF>
      <cc:Work
         rdf:about="">
        <dc:format>image/svg+xml</dc:format>
        <dc:type
           rdf:resource="http://purl.org/dc/dcmitype/StillImage" />
        <dc:title></dc:title>
      </cc:Work>
    </rdf:RDF>
  </metadata>
  <g
     inkscape:label="stempel"
     inkscape:groupmode="layer"
     id="layer1"
     transform="translate(138.61839,-627.22311)"
     style="display:inline">
    <path
       sodipodi:type="arc"
       style="fill:#666666;fill-opacity:0.34080721;stroke:#000000;stroke-width:0;stroke-linecap:round;stroke-linejoin:round;stroke-miterlimit:4;stroke-opacity:1;stroke-dasharray:none;stroke-dashoffset:0"
       id="path4127"
       sodipodi:cx="306.72812"
       sodipodi:cy="618.16559"
       sodipodi:rx="35.391705"
       sodipodi:ry="35.391705"
       d="m 342.11982,618.16559 a 35.391705,35.391705 0 1 1 -70.78341,0 35.391705,35.391705 0 1 1 70.78341,0 z"
       transform="matrix(-1.251461,0,0,1.251461,289.60027,-102.02668)" />
    <g
       id="g4401"
       inkscape:transform-center-x="6.7319145"
       transform="matrix(-1,0,0,1,-188.51602,0)">
      <path
         inkscape:transform-center-x="-6.641585"
         inkscape:connector-curvature="0"
         id="path4129"
         transform="translate(-135.06955,630.77095)"
         d="m 40.8125,14.25 c 7.33843,0 13.28125,5.94282 13.28125,13.28125 0,7.33843 -5.94282,13.28125 -13.28125,13.28125 -7.338429,0 -13.28125,5.942821 -13.28125,13.28125 0,7.338429 5.942821,13.28125 13.28125,13.28125 14.676859,0 26.5625,-11.885641 26.5625,-26.5625 C 67.375,26.135641 55.489359,14.25 40.8125,14.25 z"
         style="fill:#666666;fill-opacity:0.34080721;stroke:#000000;stroke-width:0;stroke-linecap:round;stroke-linejoin:round;stroke-miterlimit:4;stroke-opacity:1;stroke-dasharray:none;stroke-dashoffset:0" />
      <path
         inkscape:connector-curvature="0"
         id="path4390"
         d="m -94.257048,677.77809 c -3.91564,0 -7.086612,3.17097 -7.086612,7.08661 0,3.91564 3.170972,7.08661 7.086612,7.08661 3.915641,0 7.086612,-3.17097 7.086612,-7.08661 0,-3.91564 -3.170971,-7.08661 -7.086612,-7.08661 z"
         style="fill:#666666;fill-opacity:0.34080721;stroke:#000000;stroke-width:0;stroke-linecap:round;stroke-linejoin:round;stroke-miterlimit:4;stroke-opacity:1;stroke-dasharray:none;stroke-dashoffset:0" />
      <rect
         y="651.21558"
         x="-97.800362"
         height="14.173229"
         width="7.0866141"
         id="rect4395"
         style="fill:#000000;fill-opacity:0.34080721;stroke:#000000;stroke-width:0;stroke-linecap:round;stroke-linejoin:round;stroke-miterlimit:4;stroke-opacity:1;stroke-dasharray:none;stroke-dashoffset:0" />
    </g>
    <path
       transform="matrix(-1.251461,0,0,1.251461,289.60027,-102.02668)"
       d="m 342.11982,618.16559 a 35.391705,35.391705 0 1 1 -70.78341,0 35.391705,35.391705 0 1 1 70.78341,0 z"
       sodipodi:ry="35.391705"
       sodipodi:rx="35.391705"
       sodipodi:cy="618.16559"
       sodipodi:cx="306.72812"
       id="path4406"
       style="fill:#666666;fill-opacity:0.34080721;stroke:#000000;stroke-width:0;stroke-linecap:round;stroke-linejoin:round;stroke-miterlimit:4;stroke-opacity:1;stroke-dasharray:none;stroke-dashoffset:0"
       sodipodi:type="arc" />
  </g>
  <g
     inkscape:groupmode="layer"
     id="layer3"
     inkscape:label="schrift"
     transform="translate(3.5488356,3.5478404)">
    <path
       style="font-size:13px;font-style:normal;font-variant:normal;font-weight:bold;font-stretch:normal;line-height:125%;letter-spacing:0px;word-spacing:0px;fill:#000000;fill-opacity:1;stroke:#000000;stroke-width:0;stroke-miterlimit:4;stroke-opacity:1;stroke-dasharray:none;font-family:Droid Arabic Kufi;-inkscape-font-specification:Droid Arabic Kufi Bold"
       d="m 43.192415,0.71875 2.5625,0.0625 0.53125,0 0,0.53125 -0.21875,9.5 0,0.53125 -0.53125,0 -2.5625,-0.0625 c -1.445699,-0.03383 -2.54695,-0.158293 -3.34375,-0.40625 -0.781329,-0.247863 -1.472867,-0.65313 -2.03125,-1.21875 -0.481057,-0.4849035 -0.862325,-1.044172 -1.09375,-1.6875 -0.228322,-0.6398259 -0.330502,-1.3552082 -0.3125,-2.125 0.01789,-0.7642591 0.151382,-1.4460967 0.40625,-2.0625 0.255267,-0.6172942 0.655561,-1.1916616 1.15625,-1.65625 0.0067,-0.00625 0.0245,0.0062 0.03125,0 0.575833,-0.5293382 1.282607,-0.9204476 2.0625,-1.125 0.795848,-0.21475807 1.876297,-0.3156306 3.34375,-0.28125 z m -13.53125,1.4375 0.21875,0.28125 6.3125,7.875 0.46875,0.59375 -0.71875,0.25 -2.3125,0.78125 -0.34375,0.125 -0.21875,-0.3125 -0.90625,-1.125 -2.90625,0.96875 -0.03125,1.4375 0,0.375 -0.375,0.125 -2.3125,0.78125 -0.6875,0.25 -0.03125,0 -0.3125,0.28125 -1.78125,1.5 -0.40625,0.34375 -0.34375,-0.40625 -2.8125,-3.3125 0.875,2.84375 0.125,0.34375 -0.28125,0.21875 -1.1875,1 -0.28125,0.21875 -0.3125,-0.15625 -2.625,-1.3125 2.8125,3.3125 0.34375,0.40625 -0.40625,0.34375 -1.75,1.5 -0.40625,0.34375 L 16.723665,21.625 10.567415,14.40625 10.223665,14 l 0.40625,-0.34375 2.375,-2.03125 0.28125,-0.21875 0.3125,0.15625 3.8125,1.90625 -1.28125,-4.09375 -0.125,-0.34375 0.28125,-0.21875 2.375,-2 0.40625,-0.34375 0.34375,0.40625 6.15625,7.21875 0.25,0.3125 0.03125,-0.625 0.3125,-10.09375 0,-0.34375 0.375,-0.125 2.78125,-0.9375 0.34375,-0.125 z m 21.5,0.1875 0.40625,0.03125 c 0.631036,0.062128 1.222308,0.155867 1.78125,0.28125 0.55699,0.1205513 1.100736,0.2724669 1.625,0.46875 1.150264,0.430688 1.998857,1.0813582 2.46875,1.90625 0.470841,0.8265265 0.49543,1.7919151 0.125,2.78125 -0.300368,0.8022427 -0.825574,1.4205844 -1.53125,1.75 -0.713321,0.3287731 -1.550456,0.368781 -2.5625,0.21875 l -0.96875,-0.125 C 51.954807,9.577717 51.589966,9.605793 51.536165,9.625 c -0.105238,0.036305 -0.16378,0.071938 -0.21875,0.21875 -0.06291,0.168036 -0.04273,0.237318 0.0625,0.375 0.11095,0.145167 0.37138,0.334838 0.8125,0.5 0.436383,0.163398 0.921157,0.267569 1.46875,0.3125 0.546935,0.04003 1.167451,0.02199 1.8125,-0.0625 l 0.875,-0.125 -0.3125,0.84375 -0.71875,1.90625 -0.125,0.34375 -0.375,0 c -0.671022,-0.0022 -1.357211,-0.04483 -2,-0.15625 -0.635962,-0.110247 -1.247642,-0.276804 -1.84375,-0.5 -1.262968,-0.472872 -2.170031,-1.097251 -2.65625,-1.9375 -0.488729,-0.845955 -0.497458,-1.8904808 -0.09375,-2.96875 0.314827,-0.8408127 0.843282,-1.4976243 1.5625,-1.8125 0.729488,-0.3193348 1.641677,-0.3039613 2.75,-0.125 l 1.03125,0.15625 c 0.471269,0.074093 0.783463,0.079475 0.84375,0.0625 0.0686,-0.02119 0.07928,-0.034099 0.125,-0.15625 0.06967,-0.1860602 0.07078,-0.1889126 -0.03125,-0.3125 C 54.396678,6.0563933 54.095252,5.8421877 53.598665,5.65625 53.240053,5.521988 52.827378,5.434408 52.348665,5.375 51.866022,5.315197 51.343437,5.279778 50.817415,5.3125 l -0.8125,0.0625 0.28125,-0.78125 0.71875,-1.875 0.15625,-0.375 z m -8.40625,1.28125 -0.34375,0 -0.03125,0 c -0.892312,-0.014454 -1.533181,0.2016336 -1.9375,0.5625 -0.411926,0.3676715 -0.636644,0.8810174 -0.65625,1.71875 -0.01968,0.8413339 0.197835,1.4241537 0.59375,1.8125 0.393899,0.3894756 0.959302,0.6035387 1.875,0.625 l 0.03125,0 0.3125,0 0.15625,-4.71875 z m 18.65625,2.5 0.40625,0.34375 6.875,5.375 0.4375,0.3125 -0.34375,0.40625 -1.125,1.4375 -0.3125,0.4375 -0.40625,-0.34375 -2.09375,-1.625 -4.375,5.625 -0.3125,0.4375 -0.4375,-0.34375 -1.90625,-1.5 -0.40625,-0.3125 0.34375,-0.40625 4.34375,-5.59375 -2.0625,-1.59375 L 59.598665,8.4375 59.942415,8 61.098665,6.53125 61.411165,6.125 z m -32.09375,0.8125 -0.03125,1.6875 1.03125,-0.34375 -1,-1.34375 z m 40.625,9.1875 c 0.359417,-0.0081 0.675817,0.02795 1,0.09375 1.35629,0.275333 2.515091,1.171807 3.40625,2.53125 0.88859,1.355465 1.254601,2.767713 0.96875,4.125 -0.288444,1.353078 -1.194815,2.478441 -2.5625,3.375 -1.370313,0.898297 -2.773893,1.243017 -4.125,0.96875 -1.359147,-0.279353 -2.48934,-1.180201 -3.375,-2.53125 -0.888534,-1.355419 -1.257168,-2.740729 -0.96875,-4.09375 0.288623,-1.353917 1.198117,-2.480601 2.5625,-3.375 1.020111,-0.668693 2.050392,-1.070288 3.09375,-1.09375 z m 0.8125,3.40625 c -0.535719,-0.0326 -1.196703,0.150158 -1.96875,0.65625 -0.770474,0.505074 -1.191693,1.028323 -1.375,1.53125 -0.184255,0.505536 -0.148996,0.924172 0.1875,1.4375 0.340331,0.519174 0.689498,0.717787 1.21875,0.75 0.534428,0.03253 1.200502,-0.152635 1.96875,-0.65625 0.779349,-0.510873 1.227684,-1.041324 1.40625,-1.53125 0.17846,-0.48965 0.121831,-0.917937 -0.21875,-1.4375 -0.34304,-0.523289 -0.687749,-0.717681 -1.21875,-0.75 z m 5.03125,7.90625 c 0.78437,-0.04302 1.502333,0.180665 2.09375,0.625 0.803048,0.594493 1.353703,1.562792 1.65625,2.8125 l 0.9375,3.9375 0.09375,0.53125 -0.5,0.125 -9.1875,2.21875 -0.5,0.09375 -0.15625,-0.5 -0.59375,-2.375 -0.125,-0.53125 0.53125,-0.125 2.71875,-0.625 -0.28125,-1.03125 -0.03125,0 c -0.302579,-1.249885 -0.252805,-2.349157 0.1875,-3.25 0.446537,-0.912021 1.303827,-1.521921 2.375,-1.78125 0.240326,-0.05818 0.491868,-0.10913 0.78125,-0.125 z m 0.4375,3.59375 c -0.110862,-0.01558 -0.230341,-0.0038 -0.375,0.03125 -0.294586,0.07132 -0.442288,0.179423 -0.53125,0.34375 -0.09904,0.186947 -0.120382,0.381827 -0.03125,0.75 l -0.03125,0 0.21875,0.78125 1.53125,-0.375 -0.1875,-0.78125 c -0.0903,-0.372998 -0.211143,-0.542043 -0.375,-0.65625 -0.08242,-0.05744 -0.130333,-0.08132 -0.21875,-0.09375 z M 6.6299146,41.625 c 1.124473,0.01244 2.169673,0.315347 3.03125,0.96875 1.1373234,0.866816 1.8310924,2.191287 2.0937504,3.84375 0.08937,0.562216 0.106639,1.113777 0.0625,1.65625 -0.04299,0.528245 -0.135897,1.062596 -0.3125,1.59375 L 11.411165,50 l -0.3125,0.0625 -1.9375004,0.3125 -1,0.15625 0.4375,-0.90625 c 0.209482,-0.443733 0.308317,-0.894904 0.375,-1.3125 0.06449,-0.40398 0.0676,-0.793426 0,-1.21875 -0.118718,-0.746904 -0.406382,-1.24082 -0.90625,-1.5625 -0.503438,-0.323955 -1.12188,-0.420833 -2,-0.28125 -0.873954,0.138909 -1.500554,0.477954 -1.875,0.9375 -0.376334,0.461867 -0.494376,0.967673 -0.375,1.71875 0.06757,0.425072 0.189055,0.824665 0.375,1.1875 0.186793,0.36445 0.436472,0.728306 0.78125,1.09375 l 0.71875,0.75 -1.03125,0.15625 -1.9375,0.28125 -0.3125,0.03125 -0.1875,-0.25 c -0.327027,-0.442702 -0.574659,-0.881537 -0.78125,-1.375 -0.207204,-0.494992 -0.377495,-1.050909 -0.46875003,-1.625 -0.263229,-1.656114 -0.0022,-3.138596 0.81250003,-4.3125 0.812057,-1.176087 2.083663,-1.901319 3.6875,-2.15625 0.416926,-0.06627 0.801669,-0.06642 1.15625,-0.0625 z m 67.0937504,2.4375 c 0.270745,-0.01309 0.561416,0.004 0.84375,0.03125 0.366697,0.03536 0.7514,0.114194 1.15625,0.21875 1.58452,0.409234 2.793999,1.190637 3.5,2.375 0.709128,1.18967 0.81304,2.643572 0.40625,4.21875 -0.405246,1.569077 -1.182663,2.769762 -2.375,3.46875 -1.195206,0.696727 -2.636983,0.783512 -4.21875,0.375 -1.578959,-0.40778 -2.820858,-1.18321 -3.53125,-2.375 -0.708756,-1.195629 -0.778604,-2.624728 -0.375,-4.1875 0.406215,-1.572895 1.182484,-2.773591 2.375,-3.46875 0.665293,-0.387824 1.406513,-0.616978 2.21875,-0.65625 z m -0.09375,3.5625 c -0.353125,0.0025 -0.633841,0.0576 -0.875,0.15625 -0.498747,0.204028 -0.784847,0.502679 -0.9375,1.09375 -0.151787,0.587733 -0.05013,1.025203 0.28125,1.4375 0.328826,0.409112 0.91362,0.767856 1.8125,1 0.901274,0.232782 1.608351,0.198557 2.09375,0 0.491448,-0.201041 0.751244,-0.493595 0.90625,-1.09375 0.156611,-0.606434 0.07459,-1.03364 -0.25,-1.4375 -0.335987,-0.418011 -0.919647,-0.80065 -1.8125,-1.03125 -0.424792,-0.109705 -0.852868,-0.127564 -1.21875,-0.125 z m -63,4.34375 c 0.347304,0.01992 0.700313,0.09248 1.03125,0.1875 1.337032,0.387419 2.381078,1.365424 3.15625,2.78125 0.777221,1.419568 1.020918,2.82632 0.625,4.15625 -0.396023,1.330233 -1.382007,2.404282 -2.8125,3.1875 -1.434767,0.785533 -2.8602414,1.006061 -4.1875004,0.625 -1.325521,-0.380587 -2.405681,-1.322064 -3.1875,-2.75 -0.780064,-1.424777 -0.985201,-2.860738 -0.59375,-4.1875 0.39578,-1.329427 1.378533,-2.402401 2.8125,-3.1875 1.071943,-0.586897 2.123363,-0.871752 3.1562504,-0.8125 z m 56,2 c 0.600544,0.0659 1.217226,0.299217 1.84375,0.65625 l 7.4375,4.25 0.46875,0.28125 -0.25,0.4375 -1.21875,2.125 -0.28125,0.46875 -0.4375,-0.25 -7.4375,-4.25 c -0.406686,-0.231604 -0.700611,-0.266629 -0.90625,-0.21875 -0.182825,0.041 -0.386784,0.168075 -0.59375,0.53125 l 0,0.03125 -0.1875,0.3125 -0.28125,0.4375 -0.4375,-0.25 -1.59375,-0.90625 -0.4375,-0.25 0.21875,-0.46875 0.21875,-0.4375 c 0.684697,-1.201507 1.538401,-2.023101 2.53125,-2.34375 0.238369,-0.07785 0.481596,-0.139045 0.75,-0.15625 0.196954,-0.01262 0.393569,-0.02197 0.59375,0 z m -55.875,1.4375 c -0.442692,0.02889 -0.9890164,0.200148 -1.5937504,0.53125 -0.808503,0.442659 -1.274082,0.91213 -1.5,1.40625 -0.225098,0.492335 -0.19925,0.902326 0.09375,1.4375 0.299481,0.54697 0.643387,0.802636 1.15625,0.875 0.517131,0.07293 1.2157164,-0.08474 2.0312504,-0.53125 0.804508,-0.440482 1.274629,-0.913337 1.5,-1.40625 0.225829,-0.493938 0.201644,-0.897978 -0.09375,-1.4375 -0.293684,-0.536405 -0.629388,-0.769488 -1.15625,-0.84375 -0.157487,-0.02221 -0.31527,-0.03923 -0.4375,-0.03125 z m 54.59375,4.3125 c 1.38441,6.32e-4 2.686,0.633737 3.84375,1.78125 1.162159,1.151922 1.799643,2.460111 1.8125,3.84375 0.01287,1.38377 -0.605825,2.689365 -1.75,3.84375 -1.142971,1.153134 -2.457723,1.778996 -3.84375,1.78125 -1.383564,-6.2e-4 -2.683201,-0.630945 -3.84375,-1.78125 -1.159369,-1.149139 -1.799635,-2.459255 -1.8125,-3.84375 -0.0095,-1.385584 0.608584,-2.692163 1.75,-3.84375 1.145782,-1.155985 2.459749,-1.781859 3.84375,-1.78125 z m -47.5625,0.5 0.40625,0.34375 1.96875,1.65625 c 1.100475,0.942841 1.855858,1.7467 2.3125,2.4375 0.447587,0.685259 0.73763,1.424201 0.8125,2.21875 0.06671,0.689867 -0.02751,1.370424 -0.25,2 -0.225897,0.634053 -0.588892,1.25448 -1.09375,1.84375 -0.494579,0.577258 -1.033856,1.025615 -1.625,1.34375 -0.600942,0.323382 -1.255393,0.491909 -1.9375,0.53125 -0.781629,0.05026 -1.563354,-0.09528 -2.3125,-0.4375 l 0,0.03125 C 15.315756,71.850576 14.401369,71.205452 13.286165,70.25 l -1.9375,-1.6875 -0.40625,-0.34375 0.34375,-0.40625 6.15625,-7.1875 0.34375,-0.40625 z M 64.911165,63 c -0.525162,-0.07397 -0.939366,0.06048 -1.375,0.5 -0.437331,0.441226 -0.577211,0.828697 -0.5,1.34375 0.07842,0.523197 0.405896,1.130447 1.0625,1.78125 0.659464,0.653644 1.263919,0.989661 1.78125,1.0625 0.523405,0.07372 0.942844,-0.064 1.375,-0.5 0.433393,-0.437265 0.548578,-0.811189 0.46875,-1.34375 -0.07898,-0.526857 -0.408281,-1.164036 -1.0625,-1.8125 -0.656203,-0.650396 -1.220399,-0.956681 -1.75,-1.03125 z m -46.34375,1.6875 -3.0625,3.59375 0.25,0.21875 c 0.697043,0.597189 1.29751,0.836393 1.84375,0.8125 0.545172,-0.02383 1.078085,-0.29916 1.625,-0.9375 0.545419,-0.636614 0.718392,-1.187522 0.65625,-1.75 -0.05855,-0.550083 -0.367175,-1.091777 -1.0625,-1.6875 l -0.25,-0.25 z m 7.5625,2.1875 0.46875,0.1875 6.25,2.5 0.5,0.21875 -0.1875,0.46875 -0.6875,1.71875 -0.21875,0.5 -0.46875,-0.1875 -3.53125,-1.40625 -0.40625,1.03125 3.125,1.25 0.5,0.21875 -0.1875,0.46875 -0.6875,1.71875 -0.21875,0.5 -0.46875,-0.1875 -3.125,-1.28125 -0.28125,0.65625 3.375,1.34375 0.5,0.1875 -0.1875,0.5 -0.6875,1.71875 -0.21875,0.5 -0.46875,-0.1875 -6.125,-2.46875 -0.5,-0.21875 0.1875,-0.46875 3.53125,-8.78125 0.21875,-0.5 z m 29.09375,0.375 c 0.204297,-0.005 0.396134,0.01292 0.59375,0.03125 0.385665,0.03576 0.774121,0.114551 1.15625,0.25 0.654129,0.230059 1.2094,0.594909 1.6875,1.0625 0.486885,0.478628 0.869167,1.083108 1.1875,1.78125 0.312765,0.685974 0.522361,1.353429 0.5625,2.03125 0.03975,0.671926 -0.05565,1.351269 -0.3125,2 -0.292237,0.752599 -0.797346,1.385313 -1.40625,1.90625 -0.622026,0.53988 -1.570828,1.078591 -2.90625,1.6875 l -2.34375,1.0625 -0.46875,0.21875 -0.21875,-0.46875 -3.9375,-8.625 -0.25,-0.46875 0.5,-0.21875 2.34375,-1.0625 c 1.31362,-0.598969 2.326293,-0.999985 3.15625,-1.125 l 0.03125,0 c 0.203945,-0.02957 0.420703,-0.0575 0.625,-0.0625 z m -20.9375,2.78125 0.53125,0.03125 2.4375,0.1875 0.53125,0.03125 -0.03125,0.53125 -0.21875,3.03125 0.15625,0.03125 c 0.01375,9.28e-4 0.01791,-5.77e-4 0.03125,0 0.276944,0.01198 0.484106,-0.03577 0.625,-0.125 0.138971,-0.08639 0.364283,-0.329543 0.59375,-0.71875 l 0,-0.03125 1.3125,-2.25 0.1875,-0.3125 0.3125,0.03125 2.59375,0.1875 0.84375,0.0625 -0.40625,0.75 -1.5,2.59375 c -0.322527,0.553085 -0.644852,0.97099 -1,1.28125 -0.09071,0.08181 -0.212773,0.08841 -0.3125,0.15625 0.264781,0.194031 0.606275,0.323417 0.78125,0.59375 0.351032,0.534445 0.485124,1.169123 0.4375,1.875 -0.06844,1.014126 -0.478219,1.86531 -1.25,2.34375 -0.762668,0.476447 -1.790243,0.61916 -3.09375,0.53125 l -3.71875,-0.25 -0.53125,-0.03125 0.03125,-0.53125 0.625,-9.46875 0.03125,-0.53125 z m 20.59375,0.375 c -0.422039,-0.04054 -0.968077,0.05846 -1.59375,0.34375 l 0,0.03125 -0.3125,0.125 1.96875,4.3125 0.3125,-0.15625 c 0.832599,-0.37964 1.290548,-0.835561 1.5,-1.34375 0.212223,-0.514978 0.221004,-1.116132 -0.125,-1.875 -0.348618,-0.764552 -0.780158,-1.164644 -1.3125,-1.34375 -0.151613,-0.05169 -0.313492,-0.08184 -0.4375,-0.09375 z m -17.5,6.1875 -0.09375,1.375 L 37.754915,78 c 0.436449,0.02945 0.707832,-0.07092 0.78125,-0.125 0.07401,-0.05346 0.165066,-0.167651 0.1875,-0.5 0.0228,-0.338016 -0.03826,-0.446914 -0.125,-0.53125 -0.08017,-0.07942 -0.285299,-0.189479 -0.71875,-0.21875 l -0.5,-0.03125 z"
       id="path4234"
       inkscape:connector-curvature="0" />
  </g>
  <g
     inkscape:groupmode="layer"
     id="layer2"
     inkscape:label="schrift-quelle"
     style="display:none"
     transform="translate(3.5488356,3.5478404)">
    <text
       transform="translate(135.06955,-630.77095)"
       sodipodi:linespacing="125%"
       id="text4159"
       style="font-size:40px;font-style:normal;font-variant:normal;font-weight:500;font-stretch:normal;line-height:125%;letter-spacing:0px;word-spacing:0px;fill:#800080;fill-opacity:1;stroke:none;display:inline;font-family:Century Schoolbook L;-inkscape-font-specification:Century Schoolbook L Medium"
       xml:space="preserve"
       x="-2.6504059"
       y="-2.6470604">CODER DOJO POTSDAM</text>
  </g>
</svg>
