<?xml version="1.0" encoding="UTF-8" standalone="no"?>
<!-- Created with Inkscape (http://www.inkscape.org/) -->

<svg
   xmlns:dc="http://purl.org/dc/elements/1.1/"
   xmlns:cc="http://creativecommons.org/ns#"
   xmlns:rdf="http://www.w3.org/1999/02/22-rdf-syntax-ns#"
   xmlns:svg="http://www.w3.org/2000/svg"
   xmlns="http://www.w3.org/2000/svg"
   xmlns:xlink="http://www.w3.org/1999/xlink"
   xmlns:sodipodi="http://sodipodi.sourceforge.net/DTD/sodipodi-0.dtd"
   xmlns:inkscape="http://www.inkscape.org/namespaces/inkscape"
   width="1111.29"
   height="1111.29"
   id="svg9350"
   version="1.1"
   inkscape:version="0.48.5 r10040"
   sodipodi:docname="stempel.svg">
  <defs
     id="defs9352">
    <linearGradient
       id="linearGradient10027">
      <stop
         id="stop10029"
         offset="0"
         style="stop-color:#555753;stop-opacity:1" />
      <stop
         id="stop10031"
         offset="1"
         style="stop-color:#000000;stop-opacity:0" />
    </linearGradient>
    <linearGradient
       id="linearGradient9893">
      <stop
         style="stop-color:#d3d7cf;stop-opacity:1"
         offset="0"
         id="stop9895" />
      <stop
         style="stop-color:#ffffff;stop-opacity:1;"
         offset="1"
         id="stop9897" />
    </linearGradient>
    <linearGradient
       id="linearGradient9885">
      <stop
         style="stop-color:#40423f;stop-opacity:1;"
         offset="0"
         id="stop9887" />
      <stop
         style="stop-color:#000000;stop-opacity:1;"
         offset="1"
         id="stop9889" />
    </linearGradient>
    <linearGradient
       inkscape:collect="always"
       xlink:href="#linearGradient9885"
       id="linearGradient9976"
       x1="310.23251"
       y1="-395.22055"
       x2="159.76445"
       y2="144.31961"
       gradientUnits="userSpaceOnUse" />
    <linearGradient
       inkscape:collect="always"
       xlink:href="#linearGradient9885"
       id="linearGradient9996"
       gradientUnits="userSpaceOnUse"
       x1="310.23251"
       y1="-395.22055"
       x2="159.76445"
       y2="144.31961" />
    <linearGradient
       inkscape:collect="always"
       xlink:href="#linearGradient10027"
       id="linearGradient10025"
       gradientUnits="userSpaceOnUse"
       x1="120.10515"
       y1="118.83782"
       x2="69.22979"
       y2="-138.27754" />
    <linearGradient
       inkscape:collect="always"
       xlink:href="#linearGradient9893"
       id="linearGradient10280"
       gradientUnits="userSpaceOnUse"
       gradientTransform="translate(0,-880)"
       x1="147.48734"
       y1="1003.5928"
       x2="426.97052"
       y2="533.599" />
    <linearGradient
       inkscape:collect="always"
       xlink:href="#linearGradient9885"
       id="linearGradient10282"
       gradientUnits="userSpaceOnUse"
       gradientTransform="translate(0,-6.016019)"
       x1="426.97052"
       y1="-340.38498"
       x2="147.48734"
       y2="129.60887" />
    <linearGradient
       inkscape:collect="always"
       xlink:href="#linearGradient9885"
       id="linearGradient10284"
       gradientUnits="userSpaceOnUse"
       gradientTransform="translate(3.6568542,538.59655)"
       x1="423.31366"
       y1="-882.99756"
       x2="143.83047"
       y2="-413.00369" />
    <linearGradient
       inkscape:collect="always"
       xlink:href="#linearGradient9893"
       id="linearGradient10286"
       gradientUnits="userSpaceOnUse"
       x1="147.48734"
       y1="123.59286"
       x2="426.97052"
       y2="-346.401" />
    <path
       transform="matrix(28.345764,0,0,28.345764,-4256.8273,-11436.715)"
       style="color:#000000;fill:none;stroke:none;stroke-width:8;marker:none;visibility:visible;display:inline;overflow:visible;enable-background:accumulate"
       d="m 130.98126,391.77451 c 17.03754,3.00418 34.46933,3.00418 51.50687,10e-6"
       id="path3919"
       inkscape:connector-curvature="0"
       sodipodi:nodetypes="cc" />
    <linearGradient
       inkscape:collect="always"
       xlink:href="#linearGradient9885"
       id="linearGradient10371"
       x1="426.97052"
       y1="-456.35025"
       x2="147.48734"
       y2="13.643602"
       gradientUnits="userSpaceOnUse" />
    <linearGradient
       inkscape:collect="always"
       xlink:href="#linearGradient9893"
       id="linearGradient10397"
       gradientUnits="userSpaceOnUse"
       gradientTransform="translate(0,-880)"
       x1="147.48734"
       y1="1003.5928"
       x2="426.97052"
       y2="533.599" />
    <linearGradient
       inkscape:collect="always"
       xlink:href="#linearGradient9885"
       id="linearGradient10399"
       gradientUnits="userSpaceOnUse"
       gradientTransform="translate(0,-6.016019)"
       x1="426.97052"
       y1="-340.38498"
       x2="147.48734"
       y2="129.60887" />
    <linearGradient
       inkscape:collect="always"
       xlink:href="#linearGradient9885"
       id="linearGradient10401"
       gradientUnits="userSpaceOnUse"
       gradientTransform="translate(3.6568542,538.59655)"
       x1="423.31366"
       y1="-882.99756"
       x2="143.83047"
       y2="-413.00369" />
    <linearGradient
       inkscape:collect="always"
       xlink:href="#linearGradient9893"
       id="linearGradient10403"
       gradientUnits="userSpaceOnUse"
       x1="147.48734"
       y1="123.59286"
       x2="426.97052"
       y2="-346.401" />
    <linearGradient
       inkscape:collect="always"
       xlink:href="#linearGradient9885"
       id="linearGradient10405"
       gradientUnits="userSpaceOnUse"
       x1="426.97052"
       y1="-456.35025"
       x2="147.48734"
       y2="13.643602" />
    <linearGradient
       inkscape:collect="always"
       xlink:href="#linearGradient9885"
       id="linearGradient293755"
       gradientUnits="userSpaceOnUse"
       x1="426.97052"
       y1="-456.35025"
       x2="147.48734"
       y2="13.643602"
       gradientTransform="matrix(0.69535795,0,0,0.69535795,74.04075,174.56348)" />
    <linearGradient
       inkscape:collect="always"
       xlink:href="#linearGradient9893"
       id="linearGradient3955"
       gradientUnits="userSpaceOnUse"
       gradientTransform="translate(0,-880)"
       x1="147.48734"
       y1="1003.5928"
       x2="426.97052"
       y2="533.599" />
    <linearGradient
       inkscape:collect="always"
       xlink:href="#linearGradient9885"
       id="linearGradient3957"
       gradientUnits="userSpaceOnUse"
       gradientTransform="translate(0,-6.016019)"
       x1="426.97052"
       y1="-340.38498"
       x2="147.48734"
       y2="129.60887" />
    <linearGradient
       inkscape:collect="always"
       xlink:href="#linearGradient9885"
       id="linearGradient3959"
       gradientUnits="userSpaceOnUse"
       gradientTransform="translate(3.6568542,538.59655)"
       x1="423.31366"
       y1="-882.99756"
       x2="143.83047"
       y2="-413.00369" />
    <linearGradient
       inkscape:collect="always"
       xlink:href="#linearGradient9893"
       id="linearGradient3961"
       gradientUnits="userSpaceOnUse"
       x1="147.48734"
       y1="123.59286"
       x2="426.97052"
       y2="-346.401" />
    <linearGradient
       inkscape:collect="always"
       xlink:href="#linearGradient9885"
       id="linearGradient3963"
       gradientUnits="userSpaceOnUse"
       x1="426.97052"
       y1="-456.35025"
       x2="147.48734"
       y2="13.643602" />
    <linearGradient
       inkscape:collect="always"
       xlink:href="#linearGradient9885"
       id="linearGradient3965"
       gradientUnits="userSpaceOnUse"
       gradientTransform="matrix(0.69535795,0,0,0.69535795,74.04075,174.56348)"
       x1="426.97052"
       y1="-456.35025"
       x2="147.48734"
       y2="13.643602" />
    <linearGradient
       inkscape:collect="always"
       xlink:href="#linearGradient9885"
       id="linearGradient3969"
       gradientUnits="userSpaceOnUse"
       gradientTransform="matrix(0.69535795,0,0,0.69535795,73.379272,1154.6256)"
       x1="426.97052"
       y1="-456.35025"
       x2="147.48734"
       y2="13.643602" />
    <linearGradient
       inkscape:collect="always"
       xlink:href="#linearGradient9885"
       id="linearGradient3975"
       gradientUnits="userSpaceOnUse"
       x1="426.97052"
       y1="-456.35025"
       x2="147.48734"
       y2="13.643602"
       gradientTransform="translate(-0.66147755,980.06215)" />
    <linearGradient
       inkscape:collect="always"
       xlink:href="#linearGradient9893"
       id="linearGradient3983"
       gradientUnits="userSpaceOnUse"
       gradientTransform="translate(0,-880)"
       x1="147.48734"
       y1="1003.5928"
       x2="426.97052"
       y2="533.599" />
    <linearGradient
       inkscape:collect="always"
       xlink:href="#linearGradient9885"
       id="linearGradient3985"
       gradientUnits="userSpaceOnUse"
       gradientTransform="translate(0,-6.016019)"
       x1="426.97052"
       y1="-340.38498"
       x2="147.48734"
       y2="129.60887" />
    <linearGradient
       inkscape:collect="always"
       xlink:href="#linearGradient9885"
       id="linearGradient3987"
       gradientUnits="userSpaceOnUse"
       gradientTransform="translate(3.6568542,538.59655)"
       x1="423.31366"
       y1="-882.99756"
       x2="143.83047"
       y2="-413.00369" />
    <linearGradient
       inkscape:collect="always"
       xlink:href="#linearGradient9893"
       id="linearGradient3989"
       gradientUnits="userSpaceOnUse"
       x1="147.48734"
       y1="123.59286"
       x2="426.97052"
       y2="-346.401" />
    <linearGradient
       inkscape:collect="always"
       xlink:href="#linearGradient9893"
       id="linearGradient3996"
       gradientUnits="userSpaceOnUse"
       gradientTransform="translate(0,-880)"
       x1="147.48734"
       y1="1003.5928"
       x2="426.97052"
       y2="533.599" />
    <linearGradient
       inkscape:collect="always"
       xlink:href="#linearGradient9885"
       id="linearGradient3998"
       gradientUnits="userSpaceOnUse"
       gradientTransform="translate(0,-6.016019)"
       x1="426.97052"
       y1="-340.38498"
       x2="147.48734"
       y2="129.60887" />
    <linearGradient
       inkscape:collect="always"
       xlink:href="#linearGradient9885"
       id="linearGradient4000"
       gradientUnits="userSpaceOnUse"
       gradientTransform="translate(3.6568542,538.59655)"
       x1="423.31366"
       y1="-882.99756"
       x2="143.83047"
       y2="-413.00369" />
    <linearGradient
       inkscape:collect="always"
       xlink:href="#linearGradient9893"
       id="linearGradient4002"
       gradientUnits="userSpaceOnUse"
       x1="147.48734"
       y1="123.59286"
       x2="426.97052"
       y2="-346.401" />
    <linearGradient
       inkscape:collect="always"
       xlink:href="#linearGradient9893"
       id="linearGradient4005"
       gradientUnits="userSpaceOnUse"
       x1="147.48734"
       y1="123.59286"
       x2="426.97052"
       y2="-346.401"
       gradientTransform="translate(-0.66147755,870.1129)" />
    <linearGradient
       inkscape:collect="always"
       xlink:href="#linearGradient9885"
       id="linearGradient4008"
       gradientUnits="userSpaceOnUse"
       gradientTransform="translate(2.9953767,1408.7094)"
       x1="423.31366"
       y1="-882.99756"
       x2="143.83047"
       y2="-413.00369" />
    <linearGradient
       inkscape:collect="always"
       xlink:href="#linearGradient9885"
       id="linearGradient4011"
       gradientUnits="userSpaceOnUse"
       gradientTransform="translate(-0.66147755,864.09688)"
       x1="426.97052"
       y1="-340.38498"
       x2="147.48734"
       y2="129.60887" />
    <linearGradient
       inkscape:collect="always"
       xlink:href="#linearGradient9893"
       id="linearGradient4014"
       gradientUnits="userSpaceOnUse"
       gradientTransform="translate(-0.66147755,-9.8871)"
       x1="147.48734"
       y1="1003.5928"
       x2="426.97052"
       y2="533.599" />
  </defs>
  <sodipodi:namedview
     id="base"
     pagecolor="#ffffff"
     bordercolor="#666666"
     borderopacity="1.0"
     inkscape:pageopacity="0.0"
     inkscape:pageshadow="2"
     inkscape:zoom="0.42382812"
     inkscape:cx="563.83999"
     inkscape:cy="459.47235"
     inkscape:document-units="px"
     inkscape:current-layer="layer1"
     showgrid="false"
     inkscape:snap-bbox="true"
     inkscape:object-nodes="true"
     inkscape:window-width="1042"
     inkscape:window-height="872"
     inkscape:window-x="498"
     inkscape:window-y="204"
     inkscape:window-maximized="0"
     inkscape:object-paths="true"
     inkscape:snap-intersection-paths="true"
     showborder="true"
     fit-margin-top="128"
     fit-margin-left="128"
     fit-margin-right="128"
     fit-margin-bottom="128">
    <inkscape:grid
       type="xygrid"
       id="grid9358"
       empspacing="16"
       visible="true"
       enabled="true"
       snapvisiblegridlinesonly="true"
       originx="300.16732px"
       originy="438.58582px" />
  </sodipodi:namedview>
  <metadata
     id="metadata9355">
    <rdf:RDF>
      <cc:Work
         rdf:about="">
        <dc:format>image/svg+xml</dc:format>
        <dc:type
           rdf:resource="http://purl.org/dc/dcmitype/StillImage" />
        <dc:title></dc:title>
      </cc:Work>
    </rdf:RDF>
  </metadata>
  <g
     inkscape:label="Layer 1"
     inkscape:groupmode="layer"
     id="layer1"
     transform="translate(300.16732,-379.65801)">
    <path
       style="fill:#b3b3b3;fill-opacity:1;stroke:#666666;stroke-width:0;stroke-linecap:round;stroke-linejoin:round;stroke-miterlimit:4;stroke-opacity:1;stroke-dasharray:none;stroke-dashoffset:0"
       d="M -3.5625 70.21875 L -3.5625 1054.5625 L 1114.25 1054.5625 L 1114.25 70.21875 L -3.5625 70.21875 z M 555.5 141.875 C 556.86814 141.875 558.23515 141.89747 559.59375 141.9375 C 559.69725 141.94055 559.80281 141.93422 559.90625 141.9375 C 704.09378 144.30439 820.4375 262.07521 820.4375 406.8125 C 820.4375 551.5603 704.07705 669.3371 559.875 671.6875 L 559.59375 671.6875 C 559.4557 671.6955 559.35268 671.70875 559 671.71875 A 8.9418941 8.9418941 0 0 1 558.90625 671.71875 C 557.8167 671.73275 556.70104 671.75 555.5 671.75 C 554.11967 671.75 552.74562 671.72824 551.375 671.6875 C 551.29147 671.68502 551.20849 671.69013 551.125 671.6875 C 406.90844 669.3537 290.5625 551.57081 290.5625 406.8125 C 290.5625 262.01215 406.97538 144.20481 551.25 141.9375 C 551.23266 141.93805 551.372 141.93828 551.375 141.9375 C 551.38954 141.9339 551.49011 141.91825 551.96875 141.90625 A 8.9418941 8.9418941 0 0 1 552.0625 141.90625 C 553.15204 141.89245 554.29842 141.875 555.5 141.875 z M 555.5 159.75 C 554.52164 159.75 553.481 159.76735 552.40625 159.78125 C 552.36285 159.78181 552.32485 159.78069 552.28125 159.78125 C 552.28007 159.78425 552.23807 159.7989 551.8125 159.8125 A 8.9418941 8.9418941 0 0 1 551.65625 159.8125 C 416.8915 161.86745 308.4375 271.54449 308.4375 406.8125 C 308.4375 510.77504 372.53838 599.54368 463.375 636.03125 C 442.75095 617.24656 427.87857 592.27611 421.71875 564.0625 C 421.46301 562.89115 421.22546 561.71351 421 560.53125 C 420.77198 559.33558 420.57162 558.14389 420.375 556.9375 C 420.19464 555.83086 419.99733 554.70906 419.84375 553.59375 C 419.82516 553.45942 419.8307 553.32196 419.8125 553.1875 C 419.67581 552.1727 419.55176 551.14666 419.4375 550.125 C 419.40935 549.87411 419.37053 549.6263 419.34375 549.375 C 419.224 548.24787 419.12338 547.13505 419.03125 546 C 418.93121 544.76754 418.84831 543.52263 418.78125 542.28125 C 418.77332 542.13534 418.75747 541.98978 418.75 541.84375 C 418.6315 539.51261 418.5625 537.17264 418.5625 534.8125 C 418.5625 532.45236 418.6315 530.11239 418.75 527.78125 C 418.86797 525.46053 419.04868 523.13287 419.28125 520.84375 C 419.2823 520.83342 419.2802 520.82283 419.28125 520.8125 C 419.29302 520.69687 419.30044 520.5843 419.3125 520.46875 C 419.53975 518.29629 419.82827 516.11004 420.15625 513.96875 C 420.32967 512.83652 420.51768 511.71675 420.71875 510.59375 C 421.92515 503.85577 423.62525 497.29751 425.78125 490.9375 C 426.85925 487.7575 428.04296 484.63339 429.34375 481.5625 C 431.07813 477.46797 433.01476 473.4741 435.125 469.59375 C 438.29036 463.77323 441.86643 458.21115 445.8125 452.9375 C 448.44322 449.42173 451.23867 446.0251 454.1875 442.78125 C 455.66192 441.15933 457.16914 439.58086 458.71875 438.03125 C 459.49356 437.25644 460.26944 436.47494 461.0625 435.71875 C 462.64863 434.20637 464.2805 432.74823 465.9375 431.3125 C 467.5945 429.87677 469.27502 428.48121 471 427.125 C 472.72498 425.76879 474.49118 424.43004 476.28125 423.15625 C 477.16931 422.52432 478.0652 421.89237 478.96875 421.28125 C 479.87952 420.6655 480.82386 420.06299 481.75 419.46875 C 482.66872 418.87927 483.59776 418.28672 484.53125 417.71875 C 485.81372 416.93879 487.12795 416.20731 488.4375 415.46875 C 490.01758 414.57726 491.6007 413.70475 493.21875 412.875 C 500.09823 409.34715 507.32275 406.3669 514.8125 404.03125 C 515.8839 403.69739 516.98006 403.37052 518.0625 403.0625 C 520.21775 402.4492 522.39687 401.88373 524.59375 401.375 C 525.69719 401.11973 526.8241 400.8846 527.9375 400.65625 C 529.97847 400.23767 532.05229 399.88891 534.125 399.5625 C 535.43408 399.35666 536.77274 399.1371 538.09375 398.96875 C 540.36577 398.6792 542.66369 398.45765 544.96875 398.28125 C 546.12653 398.19291 547.30318 398.12175 548.46875 398.0625 C 550.79989 397.944 553.13986 397.875 555.5 397.875 C 556.51867 397.875 557.55003 397.86906 558.5625 397.84375 C 560.60797 397.7921 562.66923 397.68433 564.6875 397.53125 C 568.71367 397.22587 572.69056 396.72554 576.59375 396.03125 C 577.57197 395.85699 578.56153 395.66667 579.53125 395.46875 C 580.49101 395.27286 581.45512 395.06251 582.40625 394.84375 C 592.01539 392.63104 601.192 389.25241 609.75 384.875 C 620.86872 379.18778 630.97456 371.77218 639.71875 363.03125 C 641.73748 361.01252 643.69266 358.94051 645.5625 356.78125 C 646.18578 356.0615 646.80013 355.3285 647.40625 354.59375 C 648.61848 353.12425 649.79577 351.62138 650.9375 350.09375 C 651.50837 349.32993 652.07222 348.55913 652.625 347.78125 C 653.73055 346.22548 654.81241 344.64144 655.84375 343.03125 C 656.87509 341.42106 657.85785 339.78713 658.8125 338.125 C 659.28532 337.30177 659.7652 336.46051 660.21875 335.625 C 660.22313 335.61693 660.21437 335.60182 660.21875 335.59375 C 662.50718 331.37581 664.53818 327.00779 666.3125 322.5 C 667.02223 320.69689 667.68936 318.87641 668.3125 317.03125 C 668.93564 315.18609 669.52842 313.32223 670.0625 311.4375 C 670.59658 309.55277 671.08871 307.64058 671.53125 305.71875 C 671.97379 303.79692 672.37022 301.8627 672.71875 299.90625 C 673.41581 295.99335 673.91259 292.03654 674.21875 288 C 674.44837 284.9726 674.5625 281.89971 674.5625 278.8125 C 674.5625 277.80422 674.55604 276.78345 674.53125 275.78125 C 674.53073 275.76039 674.53178 275.73961 674.53125 275.71875 C 674.50622 274.72759 674.45524 273.76617 674.40625 272.78125 C 674.4047 272.7499 674.40783 272.71884 674.40625 272.6875 C 674.35804 271.73339 674.28919 270.76049 674.21875 269.8125 C 674.21413 269.75042 674.22346 269.68706 674.21875 269.625 C 674.07311 267.70799 673.89127 265.79653 673.65625 263.90625 C 673.64456 263.8122 673.63691 263.71899 673.625 263.625 C 673.51348 262.74512 673.38054 261.87372 673.25 261 C 673.1053 260.03182 672.94904 259.05409 672.78125 258.09375 C 672.7592 257.96757 672.74119 257.84479 672.71875 257.71875 C 672.57234 256.89687 672.41313 256.0659 672.25 255.25 C 672.21871 255.09369 672.18815 254.93733 672.15625 254.78125 C 671.79953 253.03564 671.40076 251.27914 670.96875 249.5625 C 670.92419 249.38544 670.8891 249.208 670.84375 249.03125 C 670.6503 248.27759 670.42647 247.52901 670.21875 246.78125 C 670.1637 246.58306 670.11855 246.38527 670.0625 246.1875 C 669.85752 245.46416 669.62446 244.74888 669.40625 244.03125 C 669.34009 243.81377 669.28611 243.59194 669.21875 243.375 C 669.14346 243.13242 669.04554 242.89815 668.96875 242.65625 C 668.7503 241.96811 668.54303 241.27637 668.3125 240.59375 C 668.08253 239.91281 667.86686 239.23782 667.625 238.5625 C 667.53889 238.322 667.46261 238.08353 667.375 237.84375 C 667.13772 237.19448 666.87319 236.55014 666.625 235.90625 C 666.52441 235.64534 666.41487 235.38502 666.3125 235.125 C 666.06552 234.49754 665.81976 233.87217 665.5625 233.25 C 665.44939 232.97646 665.33383 232.71 665.21875 232.4375 C 664.96627 231.83956 664.69941 231.24912 664.4375 230.65625 C 664.30924 230.36601 664.19301 230.07025 664.0625 229.78125 C 663.80358 229.20766 663.54895 228.63118 663.28125 228.0625 C 663.13917 227.76078 662.98828 227.45657 662.84375 227.15625 C 662.57752 226.60292 662.30574 226.04851 662.03125 225.5 C 661.87376 225.1853 661.72269 224.8756 661.5625 224.5625 C 661.29607 224.04161 661.02384 223.51639 660.75 223 C 660.71065 222.92584 660.66451 222.85532 660.625 222.78125 C 660.22139 222.02451 659.79437 221.27809 659.375 220.53125 C 657.99376 218.07144 656.547 215.65975 655 213.3125 C 654.48433 212.53008 653.93975 211.73808 653.40625 210.96875 C 653.14538 210.59256 652.89008 210.21676 652.625 209.84375 C 652.34861 209.45481 652.06218 209.07294 651.78125 208.6875 C 651.50083 208.30281 651.2224 207.91242 650.9375 207.53125 C 650.66143 207.16187 650.374 206.80354 650.09375 206.4375 C 649.52546 205.69523 648.96024 204.97831 648.375 204.25 C 648.05204 203.84808 647.73431 203.42884 647.40625 203.03125 C 647.13838 202.70653 646.86499 202.38431 646.59375 202.0625 C 646.24677 201.65087 645.91494 201.25057 645.5625 200.84375 C 645.30452 200.54584 645.04213 200.26406 644.78125 199.96875 C 643.54469 198.56974 642.26904 197.18283 640.96875 195.84375 C 640.56112 195.42396 640.16374 195.0075 639.75 194.59375 C 639.5067 194.35045 639.2454 194.1162 639 193.875 C 638.5651 193.44762 638.12892 193.01444 637.6875 192.59375 C 637.45249 192.36971 637.20559 192.15963 636.96875 191.9375 C 636.51314 191.51029 636.05606 191.07631 635.59375 190.65625 C 635.36448 190.44791 635.13716 190.23782 634.90625 190.03125 C 634.8132 189.94801 634.71832 189.8642 634.625 189.78125 C 634.0206 189.24397 633.39661 188.71254 632.78125 188.1875 C 632.27588 187.75631 631.79389 187.32907 631.28125 186.90625 C 631.07456 186.73575 630.86411 186.57538 630.65625 186.40625 C 630.13185 185.97967 629.59427 185.54277 629.0625 185.125 C 628.85887 184.96506 628.6422 184.81488 628.4375 184.65625 C 627.8826 184.22611 627.34393 183.79548 626.78125 183.375 C 626.59612 183.23664 626.40471 183.10606 626.21875 182.96875 C 625.63984 182.5414 625.05564 182.10453 624.46875 181.6875 C 624.29139 181.56147 624.11558 181.43758 623.9375 181.3125 C 623.33706 180.89073 622.73355 180.47338 622.125 180.0625 C 621.9586 179.95017 621.792 179.83025 621.625 179.71875 C 620.99656 179.29909 620.35558 178.87669 619.71875 178.46875 C 619.56499 178.37026 619.40425 178.2853 619.25 178.1875 C 618.59334 177.77108 617.94657 177.37258 617.28125 176.96875 C 617.14539 176.88629 617.01121 176.80068 616.875 176.71875 C 616.71874 176.62477 616.56298 176.53078 616.40625 176.4375 C 615.75606 176.05051 615.09564 175.68738 614.4375 175.3125 C 612.89277 174.43262 611.33714 173.56175 609.75 172.75 C 609.65816 172.70302 609.56073 172.67175 609.46875 172.625 C 606.99712 171.36895 604.47404 170.17869 601.90625 169.09375 C 601.8546 169.07194 601.80169 169.05299 601.75 169.03125 C 600.9152 168.67993 600.06317 168.33273 599.21875 168 C 599.17908 167.98438 599.13344 167.98432 599.09375 167.96875 C 597.32511 167.27404 595.55899 166.61145 593.75 166 C 591.22871 165.14779 588.65673 164.37256 586.0625 163.6875 C 585.86431 163.63524 585.66734 163.58251 585.46875 163.53125 C 585.41747 163.51799 585.36381 163.51319 585.3125 163.5 C 584.89868 163.39378 584.47806 163.28938 584.0625 163.1875 C 583.52093 163.05452 582.98197 162.90681 582.4375 162.78125 C 581.56972 162.58142 580.68748 162.39955 579.8125 162.21875 C 579.71796 162.19919 579.62587 162.17559 579.53125 162.15625 C 577.766 161.79544 575.98045 161.50073 574.1875 161.21875 C 574.14544 161.21215 574.10458 161.19406 574.0625 161.1875 C 573.92722 161.16637 573.79168 161.14567 573.65625 161.125 C 571.85772 160.85047 570.04301 160.63088 568.21875 160.4375 C 568.041 160.41866 567.86548 160.39306 567.6875 160.375 C 566.88413 160.29366 566.08931 160.2216 565.28125 160.15625 C 564.5535 160.09724 563.82518 160.04591 563.09375 160 C 562.83242 159.98366 562.57429 159.95216 562.3125 159.9375 C 562.09489 159.92526 561.87418 159.91732 561.65625 159.90625 C 560.83725 159.86487 560.01083 159.83732 559.1875 159.8125 A 8.9418941 8.9418941 0 0 1 558.59375 159.78125 C 557.57102 159.75543 556.52907 159.75 555.5 159.75 z M 571.5 235.03125 L 571.5 322.625 L 545.03125 322.625 L 545.03125 255.375 L 533.875 255.375 L 533.875 238.375 L 571.5 235.03125 z M 555.5 488.875 C 530.11592 488.875 509.53125 509.42842 509.53125 534.8125 C 509.53125 560.19658 530.11592 580.78125 555.5 580.78125 C 580.88408 580.78125 601.46875 560.19658 601.46875 534.8125 C 601.46875 509.42842 580.88408 488.875 555.5 488.875 z M 555.5 512.90625 C 567.60625 512.90625 577.40625 522.70625 577.40625 534.8125 C 577.40625 546.91875 567.60625 556.75 555.5 556.75 C 543.39375 556.75 533.5625 546.91875 533.5625 534.8125 C 533.5625 522.70625 543.39375 512.90625 555.5 512.90625 z M 390.375 746.8125 L 422.25 746.8125 L 422.25 884.5625 L 390.375 884.5625 L 390.375 870.21875 C 386.00771 876.06138 381.18989 880.34775 375.9375 883.0625 C 370.68498 885.77725 364.62361 887.125 357.71875 887.125 C 345.50232 887.125 335.47415 882.27244 327.625 872.59375 C 319.77581 862.85606 315.84374 850.34778 315.84375 835.0625 C 315.84374 819.77732 319.77581 807.30377 327.625 797.625 C 335.47415 787.88739 345.50232 783.0001 357.71875 783 C 364.5646 783.0001 370.59123 784.41383 375.84375 787.1875 C 381.15515 789.90235 386.00771 794.15398 390.375 799.9375 L 390.375 746.8125 z M 917.53125 746.8125 L 933.8125 746.8125 L 933.8125 767.4375 L 917.53125 767.4375 L 917.53125 746.8125 z M 130.5625 750 C 137.93946 750.00013 145.02552 750.81642 151.8125 752.46875 C 158.59928 754.12134 165.11915 756.56673 171.375 759.8125 L 171.375 787.1875 C 165.06013 782.8794 158.8251 779.72541 152.6875 777.71875 C 146.5497 775.7123 140.0993 774.68761 133.3125 774.6875 C 121.15505 774.68761 111.58887 778.58494 104.625 786.375 C 97.661016 794.16526 94.156206 804.90202 94.15625 818.59375 C 94.156206 832.22659 97.661016 842.95988 104.625 850.75 C 111.58887 858.54019 121.15505 862.40627 133.3125 862.40625 C 140.0993 862.40627 146.5497 861.41283 152.6875 859.40625 C 158.8251 857.39972 165.06013 854.24573 171.375 849.9375 L 171.375 877.28125 C 165.11915 880.52716 158.59928 883.00379 151.8125 884.65625 C 145.02552 886.30871 137.93946 887.125 130.5625 887.125 C 108.54932 887.125 91.115535 880.99417 78.25 868.71875 C 65.384408 856.38435 58.937491 839.66265 58.9375 818.59375 C 58.937491 797.46596 65.384408 780.77552 78.25 768.5 C 91.115535 756.1657 108.54932 750.00013 130.5625 750 z M 667.90625 752.375 L 704.625 752.375 C 730.23804 752.37513 749.05082 757.72441 761.03125 768.40625 C 773.01146 779.02931 778.99987 795.68154 779 818.34375 C 778.99987 841.12413 772.97672 857.84931 760.9375 868.53125 C 748.89805 879.21322 730.12001 884.5625 704.625 884.5625 L 667.90625 884.5625 L 667.90625 752.375 z M 685.78125 767.09375 L 685.78125 869.84375 L 707.375 869.84375 C 725.61099 869.84376 738.96682 865.73107 747.40625 857.46875 C 755.90451 849.20649 760.15614 836.16675 760.15625 818.34375 C 760.15614 800.63891 755.90451 787.67213 747.40625 779.46875 C 738.96682 771.20657 725.61099 767.09387 707.375 767.09375 L 685.78125 767.09375 z M 245.46875 783 C 262.52441 783.0001 275.81425 787.60604 285.375 796.8125 C 294.99456 806.01914 299.81238 818.77404 299.8125 835.0625 C 299.81238 851.35106 294.99456 864.10596 285.375 873.3125 C 275.81425 882.51906 262.52441 887.125 245.46875 887.125 C 228.35395 887.125 214.95991 882.51906 205.28125 873.3125 C 195.66156 864.10596 190.84374 851.35106 190.84375 835.0625 C 190.84374 818.77404 195.66156 806.01914 205.28125 796.8125 C 214.95991 787.60604 228.35395 783.0001 245.46875 783 z M 500.40625 783 C 515.9865 783.0001 528.45657 787.71024 537.78125 797.09375 C 547.16475 806.47744 551.84364 819.02045 551.84375 834.71875 L 551.84375 843.75 L 477.75 843.75 C 478.51717 851.1861 481.20918 856.75074 485.8125 860.46875 C 490.41573 864.1868 496.83139 866.06252 505.09375 866.0625 C 511.76253 866.06252 518.59848 865.07256 525.5625 863.125 C 532.58536 861.11847 539.7791 858.10689 547.15625 854.09375 L 547.15625 878.53125 C 539.66106 881.36404 532.15124 883.48986 524.65625 884.90625 C 517.16109 886.38166 509.68251 887.125 502.1875 887.125 C 484.24647 887.125 470.28624 882.58853 460.3125 873.5 C 450.39773 864.35248 445.43749 851.52811 445.4375 835.0625 C 445.43749 818.89207 450.29353 806.1719 460.03125 796.90625 C 469.82794 787.64077 483.29145 783.0001 500.40625 783 z M 640.46875 783 C 641.53096 783.0001 642.66682 783.06957 643.90625 783.1875 C 645.14551 783.24662 646.95176 783.42377 649.3125 783.71875 L 649.40625 812.40625 C 646.63239 811.10796 643.83619 810.15274 641.0625 809.5625 C 638.34767 808.9134 635.61745 808.59383 632.84375 808.59375 C 624.69942 808.59383 618.42617 811.21636 614 816.46875 C 609.63274 821.66226 607.43745 829.13735 607.4375 838.875 L 607.4375 884.5625 L 575.75 884.5625 L 575.75 785.40625 L 607.4375 785.40625 L 607.4375 801.6875 C 611.50958 795.19578 616.18498 790.48216 621.4375 787.53125 C 626.74891 784.52151 633.09163 783.0001 640.46875 783 z M 845.125 783 C 859.28887 783.0001 870.41467 787.60604 878.5 796.8125 C 886.58515 806.01914 890.6249 818.77404 890.625 835.0625 C 890.6249 851.29205 886.58515 864.04694 878.5 873.3125 C 870.41467 882.51906 859.28887 887.125 845.125 887.125 C 830.902 887.125 819.74147 882.51906 811.65625 873.3125 C 803.63 864.04694 799.62499 851.29205 799.625 835.0625 C 799.62499 818.77404 803.63 806.01914 811.65625 796.8125 C 819.74147 787.60604 830.902 783.0001 845.125 783 z M 1006.25 783 C 1020.4139 783.0001 1031.5397 787.60604 1039.625 796.8125 C 1047.7102 806.01914 1051.7499 818.77404 1051.75 835.0625 C 1051.7499 851.29205 1047.7102 864.04694 1039.625 873.3125 C 1031.5397 882.51906 1020.4139 887.125 1006.25 887.125 C 992.027 887.125 980.86647 882.51906 972.78125 873.3125 C 964.755 864.04694 960.74999 851.29205 960.75 835.0625 C 960.74999 818.77404 964.755 806.01914 972.78125 796.8125 C 980.86647 787.60604 992.027 783.0001 1006.25 783 z M 917.53125 785.40625 L 933.8125 785.40625 L 933.8125 886.3125 C 933.81247 898.942 931.40181 908.0844 926.5625 913.75 C 921.78215 919.41554 914.05696 922.24996 903.375 922.25 L 897.1875 922.25 L 897.1875 908.46875 L 901.5 908.46875 C 907.69672 908.46873 911.94487 907.01678 914.1875 904.125 C 916.43011 901.2922 917.53123 895.342 917.53125 886.3125 L 917.53125 785.40625 z M 845.125 796.8125 C 836.39053 796.81259 829.48162 800.24793 824.40625 807.09375 C 819.33081 813.88071 816.81247 823.20026 816.8125 835.0625 C 816.81247 846.92484 819.29608 856.27913 824.3125 863.125 C 829.38787 869.9119 836.33151 873.31251 845.125 873.3125 C 853.80035 873.31251 860.67452 869.87717 865.75 863.03125 C 870.82533 856.18538 873.37492 846.86582 873.375 835.0625 C 873.37492 823.3183 870.82533 814.03347 865.75 807.1875 C 860.67452 800.28266 853.80035 796.81259 845.125 796.8125 z M 1006.25 796.8125 C 997.51553 796.81259 990.60662 800.24793 985.53125 807.09375 C 980.45581 813.88071 977.90622 823.20026 977.90625 835.0625 C 977.90622 846.92484 980.42108 856.27913 985.4375 863.125 C 990.51287 869.9119 997.45651 873.31251 1006.25 873.3125 C 1014.9253 873.31251 1021.7995 869.87717 1026.875 863.03125 C 1031.9503 856.18538 1034.4686 846.86582 1034.4688 835.0625 C 1034.4686 823.3183 1031.9503 814.03347 1026.875 807.1875 C 1021.7995 800.28266 1014.9253 796.81259 1006.25 796.8125 z M 500.21875 804.09375 C 494.08099 804.09383 489.11726 805.83061 485.28125 809.3125 C 481.44514 812.73552 479.03797 817.69576 478.09375 824.1875 L 519.28125 824.1875 C 519.28117 818.16789 517.50965 813.31534 513.96875 809.65625 C 510.48671 805.93829 505.88426 804.09383 500.21875 804.09375 z M 245.46875 805.6875 C 238.44574 805.68758 233.06173 808.20592 229.34375 813.28125 C 225.68469 818.29771 223.84371 825.56092 223.84375 835.0625 C 223.84371 844.56418 225.68469 851.86212 229.34375 856.9375 C 233.06173 861.95392 238.44574 864.46877 245.46875 864.46875 C 252.3736 864.46877 257.65341 861.95392 261.3125 856.9375 C 264.97144 851.86212 266.78117 844.56418 266.78125 835.0625 C 266.78117 825.56092 264.97144 818.29771 261.3125 813.28125 C 257.65341 808.20592 252.3736 805.68758 245.46875 805.6875 z M 369.46875 806.03125 C 362.74082 806.03133 357.59995 808.51145 354 813.46875 C 350.45897 818.42619 348.68746 825.61993 348.6875 835.0625 C 348.68746 844.50517 350.45897 851.6989 354 856.65625 C 357.59995 861.61365 362.74082 864.09377 369.46875 864.09375 C 376.25557 864.09377 381.42769 861.61365 384.96875 856.65625 C 388.56867 851.6989 390.37492 844.50517 390.375 835.0625 C 390.37492 825.61993 388.56867 818.42619 384.96875 813.46875 C 381.42769 808.51145 376.25557 806.03133 369.46875 806.03125 z M 368.25 898.34375 C 379.9687 898.34382 389.14056 901.70059 395.78125 908.40625 C 402.4218 915.11204 405.74992 924.37114 405.75 936.1875 C 405.74992 947.97138 402.4218 957.20054 395.78125 963.90625 C 389.14056 970.61198 379.9687 973.96875 368.25 973.96875 C 356.56377 973.96875 347.39191 970.61198 340.71875 963.90625 C 334.07812 957.20054 330.75 947.97138 330.75 936.1875 C 330.75 924.37114 334.07812 915.11204 340.71875 908.40625 C 347.39191 901.70059 356.56377 898.34382 368.25 898.34375 z M 533.3125 898.34375 C 537.31637 898.34382 541.42444 898.63158 545.65625 899.25 C 549.88797 899.83601 554.28771 900.73314 558.8125 901.9375 L 558.8125 917.375 C 554.80854 915.58469 550.90229 914.22402 547.09375 913.3125 C 543.28511 912.4011 539.66663 911.96881 536.28125 911.96875 C 531.78903 911.96881 528.49216 912.57558 526.34375 913.8125 C 524.19529 915.04954 523.09373 916.95839 523.09375 919.5625 C 523.09373 921.51568 523.81768 923.04953 525.25 924.15625 C 526.71482 925.23052 529.34763 926.1563 533.15625 926.9375 L 541.1875 928.5625 C 549.29292 930.19015 555.05073 932.64848 558.46875 935.96875 C 561.88666 939.2891 563.59369 944.00524 563.59375 950.125 C 563.59369 958.16538 561.19134 964.15496 556.40625 968.09375 C 551.65359 972 544.39188 973.96875 534.59375 973.96875 C 529.97132 973.96875 525.31117 973.53516 520.65625 972.65625 C 516.00128 971.77734 511.34244 970.47526 506.6875 968.75 L 506.6875 952.875 C 511.34244 955.34898 515.85806 957.23048 520.1875 958.5 C 524.54945 959.73699 528.74476 960.34376 532.78125 960.34375 C 536.88277 960.34376 540.00647 959.64845 542.1875 958.28125 C 544.36844 956.91408 545.4687 954.97658 545.46875 952.4375 C 545.4687 950.15888 544.7161 948.39325 543.21875 947.15625 C 541.75386 945.9193 538.80204 944.82034 534.375 943.84375 L 527.125 942.21875 C 519.83331 940.65628 514.47915 938.168 511.09375 934.75 C 507.74088 931.33207 506.06249 926.73182 506.0625 920.9375 C 506.06249 913.67844 508.40624 908.09381 513.09375 904.1875 C 517.78123 900.28132 524.52341 898.34382 533.3125 898.34375 z M 251.6875 899.65625 L 282.90625 899.65625 C 292.18354 899.65632 299.30203 901.70971 304.25 905.84375 C 309.2304 909.94538 311.71868 915.82037 311.71875 923.4375 C 311.71868 931.08728 309.2304 936.95967 304.25 941.09375 C 299.30203 945.19534 292.18354 947.25003 282.90625 947.25 L 270.5 947.25 L 270.5 972.5625 L 251.6875 972.5625 L 251.6875 899.65625 z M 421.21875 899.65625 L 488.40625 899.65625 L 488.40625 913.875 L 464.21875 913.875 L 464.21875 972.5625 L 445.4375 972.5625 L 445.4375 913.875 L 421.21875 913.875 L 421.21875 899.65625 z M 590.125 899.65625 L 609.96875 899.65625 C 621.03642 899.65632 629.25256 900.43627 634.65625 902.03125 C 640.09239 903.59382 644.75124 906.28652 648.625 910.0625 C 652.0429 913.35032 654.58977 917.14068 656.25 921.4375 C 657.91008 925.73442 658.74992 930.59509 658.75 936.03125 C 658.74992 941.53258 657.91008 946.45185 656.25 950.78125 C 654.58977 955.07814 652.0429 958.8685 648.625 962.15625 C 644.71869 965.9323 640.03119 968.6237 634.5625 970.21875 C 629.0937 971.78125 620.90621 972.5625 609.96875 972.5625 L 590.125 972.5625 L 590.125 899.65625 z M 701.46875 899.65625 L 723.875 899.65625 L 750.875 972.5625 L 731.96875 972.5625 L 727.375 959.28125 L 698 959.28125 L 693.34375 972.5625 L 674.46875 972.5625 L 701.46875 899.65625 z M 770.5 899.65625 L 794.40625 899.65625 L 811.03125 938.65625 L 827.71875 899.65625 L 851.59375 899.65625 L 851.59375 972.5625 L 833.8125 972.5625 L 833.8125 919.21875 L 817.03125 958.53125 L 805.09375 958.53125 L 788.3125 919.21875 L 788.3125 972.5625 L 770.5 972.5625 L 770.5 899.65625 z M 367.1875 911.96875 C 361.96706 912.21675 357.86642 914.34527 354.90625 918.3125 C 351.74867 922.54432 350.18748 928.50525 350.1875 936.1875 C 350.18748 943.83727 351.74867 949.76825 354.90625 954 C 358.06377 958.23179 362.5208 960.34376 368.25 960.34375 C 374.01167 960.34376 378.4674 958.23179 381.625 954 C 384.78249 949.76825 386.34369 943.83727 386.34375 936.1875 C 386.34369 928.50525 384.78249 922.54432 381.625 918.3125 C 378.4674 914.08079 374.01167 911.96881 368.25 911.96875 C 367.89192 911.96875 367.53553 911.95222 367.1875 911.96875 z M 270.5 913.28125 L 270.5 933.625 L 280.90625 933.625 C 284.55204 933.62504 287.35803 932.75785 289.34375 931 C 291.32938 929.20968 292.31245 926.69275 292.3125 923.4375 C 292.31245 920.18234 291.32938 917.66412 289.34375 915.90625 C 287.35803 914.1485 284.55204 913.28131 280.90625 913.28125 L 270.5 913.28125 z M 608.9375 913.875 L 608.9375 958.34375 L 615.6875 958.34375 C 623.36975 958.34376 629.21349 956.43361 633.25 952.625 C 637.31895 948.81643 639.34369 943.29039 639.34375 936.03125 C 639.34369 928.80473 637.3489 923.30734 633.3125 919.53125 C 629.27599 915.75527 623.4023 913.87506 615.6875 913.875 L 608.9375 913.875 z M 712.6875 916.75 L 702.6875 945.75 L 722.65625 945.75 L 712.6875 916.75 z "
       transform="translate(-300.16732,379.65801)"
       id="rect3130" />
    <rect
       style="fill:#666666;fill-opacity:0.34080721;stroke:#000000;stroke-width:17.88199997;stroke-linecap:round;stroke-linejoin:round;stroke-miterlimit:4;stroke-opacity:1;stroke-dasharray:none;stroke-dashoffset:0"
       id="rect4031"
       width="1117.8125"
       height="984.34375"
       x="-3.5625"
       y="70.21875"
       transform="translate(-300.16732,379.65801)" />
  </g>
</svg>
