<?xml version="1.0" encoding="utf-8"?>
<!-- Generator: Adobe Illustrator 16.0.3, SVG Export Plug-In . SVG Version: 6.00 Build 0)  -->
<!DOCTYPE svg PUBLIC "-//W3C//DTD SVG 1.1//EN" "http://www.w3.org/Graphics/SVG/1.1/DTD/svg11.dtd">
<svg version="1.1"
	 id="svg9350" xmlns:dc="http://purl.org/dc/elements/1.1/" xmlns:cc="http://creativecommons.org/ns#" xmlns:svg="http://www.w3.org/2000/svg" xmlns:sodipodi="http://sodipodi.sourceforge.net/DTD/sodipodi-0.dtd" xmlns:rdf="http://www.w3.org/1999/02/22-rdf-syntax-ns#" xmlns:inkscape="http://www.inkscape.org/namespaces/inkscape" sodipodi:docname="stempel.svg" inkscape:version="0.48.5 r10040"
	 xmlns="http://www.w3.org/2000/svg" xmlns:xlink="http://www.w3.org/1999/xlink" x="0px" y="0px" width="88.697px"
	 height="88.697px" viewBox="0 0 88.697 88.697" enable-background="new 0 0 88.697 88.697" xml:space="preserve">
<sodipodi:namedview  units="mm" id="base" bordercolor="#666666" inkscape:cy="-1.3703735" inkscape:zoom="3.390625" borderopacity="1.0" inkscape:cx="86.249173" showgrid="false" showborder="true" fit-margin-left="0" fit-margin-top="0" pagecolor="#ffffff" inkscape:snap-intersection-paths="true" inkscape:snap-center="true" inkscape:snap-object-midpoints="true" inkscape:snap-midpoints="true" fit-margin-bottom="0" fit-margin-right="0" inkscape:object-paths="false" inkscape:window-maximized="0" inkscape:window-y="44" inkscape:window-x="0" inkscape:current-layer="layer6" inkscape:pageshadow="2" inkscape:pageopacity="0.0" inkscape:window-height="1036" inkscape:window-width="1920" inkscape:document-units="mm" inkscape:object-nodes="true" inkscape:snap-bbox="true">
	
		<inkscape:grid  id="grid9358" empspacing="16" originx="38.845373px" visible="true" enabled="true" originy="-342.78424px" type="xygrid" snapvisiblegridlinesonly="true">
		</inkscape:grid>
</sodipodi:namedview>
<g id="layer5" inkscape:label="kreis" inkscape:groupmode="layer">
	
		<path id="path4462" sodipodi:ry="35.391705" sodipodi:cy="618.16559" sodipodi:type="arc" sodipodi:cx="306.72812" sodipodi:rx="35.391705" fill="none" stroke="#FF0000" stroke-width="1.000000e-006" stroke-miterlimit="10" d="
		M0.045,34.686c0,19.118,15.499,34.617,34.617,34.617s34.617-15.499,34.617-34.617c0-19.119-15.498-34.617-34.617-34.617
		S0.045,15.567,0.045,34.686z"/>
</g>
<g id="layer6" inkscape:label="schrift-umriss" inkscape:groupmode="layer">
	<g id="text4517" transform="translate(138.49682,-627.28735)">
		<path id="path4525" fill="none" stroke="#FF0000" stroke-width="1.000000e-006" stroke-miterlimit="10" d="M-77.478,677.196
			l-0.962-0.438c0.425-0.177,0.789-0.407,1.088-0.692c0.3-0.282,0.537-0.619,0.716-1.011c0.35-0.771,0.381-1.469,0.094-2.093
			c-0.284-0.623-0.872-1.137-1.764-1.542c-0.888-0.402-1.66-0.507-2.32-0.312c-0.654,0.196-1.159,0.68-1.509,1.451
			c-0.178,0.391-0.274,0.792-0.29,1.202c-0.016,0.413,0.048,0.84,0.195,1.276l-0.953-0.433c-0.072-0.418-0.082-0.83-0.027-1.237
			c0.053-0.405,0.17-0.806,0.351-1.204c0.463-1.02,1.141-1.683,2.03-1.988c0.894-0.302,1.88-0.208,2.962,0.283
			c1.084,0.492,1.805,1.174,2.161,2.044c0.359,0.871,0.308,1.817-0.155,2.838c-0.184,0.404-0.41,0.758-0.68,1.064
			C-76.81,676.714-77.122,676.979-77.478,677.196"/>
		<path id="path4527" fill="none" stroke="#FF0000" stroke-width="1.000000e-006" stroke-miterlimit="10" d="M-81.695,682.479
			c0.494-0.534,0.688-1.144,0.581-1.827c-0.108-0.682-0.505-1.341-1.192-1.976c-0.686-0.634-1.371-0.978-2.059-1.033
			c-0.69-0.053-1.282,0.188-1.777,0.722c-0.494,0.534-0.686,1.141-0.575,1.82c0.108,0.681,0.506,1.339,1.19,1.972
			c0.687,0.636,1.374,0.982,2.062,1.036C-82.78,683.252-82.189,683.014-81.695,682.479 M-81.098,683.031
			c-0.705,0.762-1.524,1.135-2.459,1.116c-0.933-0.015-1.829-0.42-2.688-1.215c-0.857-0.793-1.33-1.655-1.421-2.585
			c-0.088-0.928,0.222-1.773,0.927-2.535c0.708-0.765,1.528-1.142,2.464-1.128c0.932,0.015,1.828,0.42,2.687,1.215
			c0.859,0.795,1.333,1.658,1.42,2.586C-80.08,681.418-80.389,682.267-81.098,683.031"/>
		<path id="path4529" fill="none" stroke="#FF0000" stroke-width="1.000000e-006" stroke-miterlimit="10" d="M-88.084,687.627
			l-2.705-5.085l-1.069,0.569c-0.902,0.48-1.453,1.035-1.653,1.667c-0.203,0.634-0.069,1.39,0.399,2.271
			c0.467,0.877,1.019,1.406,1.655,1.588c0.635,0.187,1.402,0.04,2.305-0.441L-88.084,687.627 M-86.812,687.883l-1.816,0.967
			c-1.268,0.676-2.338,0.906-3.212,0.694c-0.873-0.211-1.607-0.877-2.204-1.998c-0.6-1.127-0.742-2.113-0.428-2.959
			c0.314-0.846,1.102-1.603,2.364-2.274l1.817-0.968L-86.812,687.883"/>
		<path id="path4531" fill="none" stroke="#FF0000" stroke-width="1.000000e-006" stroke-miterlimit="10" d="M-96.018,691.934
			l-4.603,0.861l-0.156-0.829l3.619-0.678l-0.404-2.155l-3.467,0.648l-0.155-0.829l3.468-0.648l-0.494-2.638l-3.706,0.692
			l-0.155-0.828l4.691-0.878L-96.018,691.934"/>
		<path id="path4533" fill="none" stroke="#FF0000" stroke-width="1.000000e-006" stroke-miterlimit="10" d="M-107.598,688.703
			c-0.208-0.096-0.399-0.271-0.576-0.528c-0.18-0.257-0.352-0.604-0.514-1.039l-0.81-2.115l1.071,0.108l0.753,1.983
			c0.194,0.52,0.399,0.871,0.613,1.056c0.21,0.184,0.513,0.296,0.909,0.335l1.086,0.109l0.313-3.115l0.997,0.101l-0.74,7.37
			l-2.25-0.227c-0.843-0.084-1.454-0.323-1.833-0.717c-0.379-0.395-0.534-0.947-0.462-1.657c0.046-0.464,0.194-0.839,0.442-1.123
			C-108.355,688.961-108.022,688.779-107.598,688.703 M-105.411,692.048l0.263-2.617l-1.253-0.125
			c-0.48-0.048-0.854,0.026-1.12,0.222c-0.27,0.199-0.426,0.514-0.469,0.944c-0.043,0.432,0.048,0.769,0.273,1.011
			c0.221,0.245,0.572,0.392,1.052,0.439L-105.411,692.048"/>
		<path id="path4535" fill="none" stroke="#FF0000" stroke-width="1.000000e-006" stroke-miterlimit="10" d="M-114.365,690.244
			l2.334-5.266l-1.107-0.491c-0.934-0.414-1.711-0.506-2.332-0.273c-0.623,0.23-1.137,0.802-1.542,1.715
			c-0.402,0.908-0.479,1.668-0.229,2.28c0.245,0.615,0.834,1.13,1.769,1.546L-114.365,690.244 M-113.783,691.403l-1.882-0.833
			c-1.312-0.583-2.154-1.282-2.525-2.103c-0.373-0.815-0.302-1.804,0.213-2.966c0.517-1.168,1.205-1.888,2.065-2.161
			c0.859-0.274,1.942-0.122,3.248,0.458l1.883,0.833L-113.783,691.403"/>
		<path id="path4537" fill="none" stroke="#FF0000" stroke-width="1.000000e-006" stroke-miterlimit="10" d="M-124.607,684.007
			c0.531,0.498,1.138,0.696,1.823,0.594c0.682-0.104,1.343-0.497,1.983-1.181c0.638-0.68,0.987-1.365,1.047-2.053
			c0.056-0.689-0.18-1.283-0.711-1.78c-0.531-0.498-1.136-0.693-1.816-0.587c-0.682,0.104-1.342,0.496-1.979,1.177
			c-0.64,0.684-0.99,1.368-1.049,2.056C-125.373,682.918-125.138,683.51-124.607,684.007 M-125.164,684.601
			c-0.758-0.709-1.125-1.533-1.101-2.467c0.021-0.932,0.432-1.825,1.232-2.679c0.798-0.852,1.663-1.321,2.594-1.405
			c0.929-0.081,1.771,0.232,2.529,0.943c0.76,0.712,1.131,1.536,1.112,2.469c-0.021,0.934-0.432,1.826-1.233,2.68
			c-0.8,0.855-1.665,1.323-2.594,1.405C-123.556,685.629-124.404,685.315-125.164,684.601"/>
		<path id="path4539" fill="none" stroke="#FF0000" stroke-width="1.000000e-006" stroke-miterlimit="10" d="M-129.441,679.423
			l-0.554-0.835l5.743-3.808c0.745-0.493,1.379-0.71,1.904-0.648c0.523,0.058,0.991,0.4,1.406,1.026l0.211,0.317l-0.703,0.467
			l-0.173-0.261c-0.245-0.37-0.521-0.563-0.828-0.575c-0.307-0.016-0.729,0.155-1.263,0.509L-129.441,679.423"/>
		<path id="path4541" fill="none" stroke="#FF0000" stroke-width="1.000000e-006" stroke-miterlimit="10" d="M-132.34,672.327
			c0.25,0.684,0.704,1.135,1.361,1.352c0.656,0.214,1.424,0.16,2.303-0.162c0.875-0.32,1.495-0.774,1.857-1.361
			c0.361-0.591,0.417-1.228,0.167-1.91c-0.25-0.685-0.703-1.131-1.358-1.342c-0.655-0.214-1.422-0.161-2.297,0.161
			c-0.879,0.321-1.5,0.775-1.862,1.363C-132.533,671.011-132.59,671.646-132.34,672.327 M-133.104,672.608
			c-0.357-0.975-0.315-1.875,0.126-2.698c0.438-0.823,1.208-1.436,2.307-1.838c1.096-0.402,2.079-0.431,2.948-0.087
			c0.866,0.345,1.478,1.005,1.834,1.98c0.358,0.979,0.318,1.88-0.119,2.707c-0.438,0.822-1.207,1.436-2.307,1.838
			s-2.082,0.433-2.948,0.087C-132.132,674.248-132.745,673.586-133.104,672.608"/>
		<path id="path4543" fill="none" stroke="#FF0000" stroke-width="1.000000e-006" stroke-miterlimit="10" d="M-128.777,644.883
			l2.238,1.655l0.75-1.014c0.277-0.375,0.394-0.736,0.352-1.085c-0.042-0.348-0.244-0.655-0.603-0.92
			c-0.355-0.264-0.707-0.364-1.052-0.304c-0.346,0.062-0.657,0.28-0.934,0.655L-128.777,644.883 M-130.035,645.198l1.345-1.819
			c0.494-0.667,1.018-1.06,1.572-1.176c0.555-0.121,1.123,0.034,1.706,0.465c0.588,0.435,0.905,0.935,0.952,1.5
			c0.049,0.563-0.173,1.177-0.667,1.845l-0.75,1.013l2.394,1.771l-0.596,0.805L-130.035,645.198"/>
		<path id="path4545" fill="none" stroke="#FF0000" stroke-width="1.000000e-006" stroke-miterlimit="10" d="M-121.857,637.548
			c-0.585,0.432-0.891,0.993-0.915,1.685c-0.021,0.69,0.246,1.412,0.801,2.165c0.554,0.751,1.163,1.217,1.828,1.401
			c0.668,0.182,1.295,0.057,1.88-0.375c0.585-0.431,0.888-0.991,0.906-1.679c0.022-0.689-0.244-1.41-0.797-2.161
			c-0.555-0.754-1.166-1.222-1.832-1.405C-120.647,636.993-121.271,637.116-121.857,637.548 M-122.339,636.893
			c0.835-0.617,1.711-0.828,2.625-0.635c0.913,0.19,1.717,0.756,2.411,1.698c0.693,0.94,0.996,1.875,0.91,2.806
			c-0.088,0.928-0.55,1.7-1.386,2.316c-0.839,0.619-1.716,0.834-2.631,0.646c-0.913-0.19-1.717-0.756-2.411-1.699
			c-0.695-0.943-0.998-1.877-0.91-2.806C-123.642,638.286-123.178,637.51-122.339,636.893"/>
		<path id="path4547" fill="none" stroke="#FF0000" stroke-width="1.000000e-006" stroke-miterlimit="10" d="M-116.989,633.693
			l5.921-2.048l0.276,0.797l-2.485,0.859l2.145,6.204l-0.952,0.329l-2.144-6.204l-2.485,0.859L-116.989,633.693"/>
		<path id="path4549" fill="none" stroke="#FF0000" stroke-width="1.000000e-006" stroke-miterlimit="10" d="M-103.663,631.14
			l0.062,0.976c-0.391-0.158-0.758-0.271-1.1-0.338c-0.343-0.068-0.671-0.091-0.985-0.072c-0.544,0.035-0.958,0.167-1.242,0.397
			c-0.28,0.229-0.408,0.539-0.383,0.929c0.021,0.327,0.134,0.568,0.339,0.724c0.208,0.153,0.59,0.262,1.144,0.33l0.613,0.085
			c0.754,0.095,1.32,0.311,1.696,0.647c0.379,0.334,0.588,0.802,0.626,1.402c0.046,0.717-0.162,1.275-0.62,1.676
			c-0.455,0.4-1.146,0.629-2.074,0.688c-0.35,0.021-0.726,0.006-1.126-0.048c-0.398-0.054-0.813-0.146-1.245-0.274l-0.065-1.03
			c0.42,0.202,0.829,0.348,1.226,0.439s0.783,0.125,1.16,0.101c0.571-0.037,1.004-0.176,1.301-0.421
			c0.296-0.244,0.431-0.574,0.404-0.99c-0.023-0.363-0.153-0.639-0.391-0.83c-0.234-0.191-0.608-0.321-1.123-0.391l-0.617-0.08
			c-0.756-0.101-1.31-0.3-1.664-0.595c-0.353-0.296-0.548-0.726-0.584-1.291c-0.041-0.654,0.155-1.183,0.59-1.588
			c0.438-0.406,1.062-0.634,1.87-0.686c0.346-0.022,0.702-0.013,1.065,0.026C-104.421,630.968-104.048,631.039-103.663,631.14"/>
		<path id="path4551" fill="none" stroke="#FF0000" stroke-width="1.000000e-006" stroke-miterlimit="10" d="M-98.664,632.199
			l-1.339,5.602l1.177,0.282c0.995,0.237,1.775,0.186,2.343-0.154c0.571-0.34,0.973-0.996,1.205-1.967
			c0.23-0.964,0.168-1.726-0.188-2.285c-0.352-0.56-1.025-0.958-2.02-1.196L-98.664,632.199 M-99.447,631.165l2.003,0.479
			c1.396,0.333,2.351,0.87,2.865,1.608c0.514,0.735,0.624,1.72,0.329,2.956c-0.297,1.242-0.843,2.075-1.639,2.501
			c-0.795,0.425-1.887,0.472-3.277,0.14l-2.003-0.479L-99.447,631.165"/>
		<path id="path4553" fill="none" stroke="#FF0000" stroke-width="1.000000e-006" stroke-miterlimit="10" d="M-88.374,636.303
			l-3.075,2.445l2.328,1.413L-88.374,636.303 M-88.344,635.165l0.971,0.59l-1.432,7.797l-0.89-0.541l0.408-1.975l-2.853-1.733
			l-1.563,1.273l-0.904-0.548L-88.344,635.165"/>
		<path id="path4555" fill="none" stroke="#FF0000" stroke-width="1.000000e-006" stroke-miterlimit="10" d="M-82.247,639.566
			l0.952,1.149l-2.672,4.673l5.093-1.756l0.954,1.15l-5.702,4.728l-0.624-0.752l5.007-4.152l-5.131,1.773l-0.643-0.776l2.691-4.713
			l-5.007,4.152l-0.62-0.748L-82.247,639.566"/>
	</g>
</g>
<g id="layer4" inkscape:label="logo" inkscape:groupmode="layer">
	
		<path id="path4129-5" inkscape:connector-curvature="0" fill="none" stroke="#FF0000" stroke-width="1.000000e-006" stroke-miterlimit="10" d="
		M34.668,13.937c-11.471,0-20.761,9.29-20.761,20.761c0,11.472,9.29,20.761,20.761,20.761c5.736,0,10.38-4.645,10.38-10.38
		c0-5.736-4.644-10.381-10.38-10.381s-10.38-4.645-10.38-10.38C24.288,18.582,28.932,13.937,34.668,13.937z M31.883,18.773v11.064
		h5.544V18.773H31.883z M34.668,39.534c3.06,0,5.544,2.484,5.544,5.544c0,3.06-2.485,5.52-5.544,5.52c-3.06,0-5.544-2.46-5.544-5.52
		C29.124,42.018,31.608,39.534,34.668,39.534z"/>
</g>
</svg>
