<?xml version="1.0" encoding="utf-8"?>
<!-- Generator: Adobe Illustrator 16.0.0, SVG Export Plug-In . SVG Version: 6.00 Build 0)  -->
<!DOCTYPE svg PUBLIC "-//W3C//DTD SVG 1.1//EN" "http://www.w3.org/Graphics/SVG/1.1/DTD/svg11.dtd">
<svg version="1.1" id="Ebene_1" xmlns="http://www.w3.org/2000/svg" xmlns:xlink="http://www.w3.org/1999/xlink" x="0px" y="0px"
	 width="185px" height="50px" viewBox="0 0 185 50" enable-background="new 0 0 185 50" xml:space="preserve">
<g>
	<path fill="#36557E" d="M19.04,26.886c-1.905,1.675-4.403,2.511-7.492,2.511c-3.964,0-6.951-1.455-8.96-4.364
		C0.863,22.535,0,19.201,0,15.029c0-4.171,0.889-7.556,2.665-10.156c2.035-2.936,5.072-4.402,9.115-4.402
		c2.754,0,5.084,0.758,6.99,2.276c1.364,1.082,2.33,2.409,2.896,3.979l-1.197,0.617c-1.262-3.811-4.236-5.715-8.921-5.715
		c-3.475,0-6.115,1.428-7.917,4.287c-1.52,2.42-2.278,5.458-2.278,9.114c0,3.682,0.732,6.695,2.201,9.038
		c1.75,2.833,4.351,4.249,7.802,4.249c2.78,0,5.032-0.747,6.758-2.24c1.339-1.159,2.227-2.652,2.665-4.48l1.121,0.58
		C21.408,24.055,20.455,25.626,19.04,26.886"/>
	<path fill="#36557E" d="M28.116,11.553c1.544-2.111,3.784-3.167,6.72-3.167s5.188,1.056,6.759,3.167
		c1.39,1.854,2.085,4.3,2.085,7.338c0,3.039-0.695,5.498-2.085,7.377c-1.597,2.06-3.85,3.088-6.759,3.088
		c-2.936,0-5.175-1.028-6.72-3.088c-1.39-1.879-2.086-4.338-2.086-7.377C26.03,15.854,26.726,13.407,28.116,11.553 M29.003,25.418
		c1.339,1.932,3.283,2.897,5.832,2.897c2.548,0,4.505-0.966,5.871-2.897c1.158-1.646,1.736-3.823,1.736-6.527
		c0-2.677-0.578-4.851-1.736-6.525c-1.366-1.932-3.323-2.897-5.871-2.897c-2.575,0-4.519,0.965-5.832,2.897
		c-1.158,1.674-1.738,3.849-1.738,6.525C27.266,21.595,27.845,23.772,29.003,25.418"/>
	<path fill="#36557E" d="M64.767,28.856h-1.197v-4.442c-1.314,3.296-3.837,4.942-7.57,4.942c-2.961,0-5.213-1.028-6.758-3.088
		c-1.39-1.854-2.085-4.313-2.085-7.377c0-3.038,0.695-5.484,2.085-7.338c1.571-2.111,3.824-3.167,6.758-3.167
		c3.81,0,6.334,1.609,7.57,4.828V1.126h1.197V28.856z M61.831,12.366c-1.313-1.932-3.258-2.897-5.832-2.897
		s-4.518,0.965-5.831,2.897c-1.184,1.648-1.777,3.822-1.777,6.525c0,2.704,0.58,4.881,1.739,6.527
		c1.337,1.932,3.295,2.896,5.869,2.896s4.519-0.964,5.832-2.896c1.159-1.646,1.738-3.823,1.738-6.527
		C63.569,16.214,62.99,14.04,61.831,12.366"/>
	<path fill="#36557E" d="M77.626,29.356c-2.858,0-5.035-1.054-6.527-3.165c-1.313-1.88-1.97-4.312-1.97-7.3
		c0-2.986,0.656-5.406,1.97-7.26c1.492-2.162,3.669-3.245,6.527-3.245c2.806,0,4.943,0.966,6.411,2.897
		c1.339,1.726,2.008,4.042,2.008,6.951v0.734H70.404v0.309c0,2.471,0.58,4.532,1.739,6.178c1.312,1.907,3.14,2.857,5.483,2.857
		c3.243,0,5.445-1.517,6.604-4.556l1.004,0.542c-0.516,1.364-1.327,2.483-2.433,3.36C81.359,28.791,79.633,29.356,77.626,29.356
		 M84.733,17.849c0-2.342-0.555-4.274-1.662-5.792c-1.236-1.725-2.974-2.588-5.213-2.588c-2.317,0-4.132,0.836-5.446,2.51
		c-1.158,1.52-1.814,3.476-1.97,5.87H84.733z"/>
	<polygon fill="#36557E" points="87.976,1.088 89.29,1.088 96.086,26.537 102.961,7.692 104.195,7.692 111.109,26.537 
		117.867,1.088 119.182,1.088 111.766,28.856 110.453,28.856 103.578,9.506 96.703,28.856 95.392,28.856 	"/>
	<path fill="#36557E" d="M128.951,29.356c-2.857,0-5.035-1.054-6.527-3.165c-1.312-1.88-1.969-4.312-1.969-7.3
		c0-2.986,0.656-5.406,1.969-7.26c1.492-2.162,3.67-3.245,6.527-3.245c2.807,0,4.943,0.966,6.41,2.897
		c1.338,1.726,2.01,4.042,2.01,6.951v0.734h-15.643v0.309c0,2.471,0.58,4.532,1.74,6.178c1.312,1.907,3.139,2.857,5.482,2.857
		c3.244,0,5.445-1.517,6.604-4.556l1.004,0.542c-0.516,1.364-1.326,2.483-2.432,3.36C132.684,28.791,130.959,29.356,128.951,29.356
		 M136.059,17.849c0-2.342-0.555-4.274-1.662-5.792c-1.234-1.725-2.975-2.588-5.213-2.588c-2.318,0-4.133,0.836-5.445,2.51
		c-1.158,1.52-1.816,3.476-1.971,5.87H136.059z"/>
	<path fill="#36557E" d="M149.148,29.356c-2.857,0-5.033-1.054-6.525-3.165c-1.314-1.88-1.971-4.312-1.971-7.3
		c0-2.986,0.656-5.406,1.971-7.26c1.492-2.162,3.668-3.245,6.525-3.245c2.807,0,4.943,0.966,6.412,2.897
		c1.338,1.726,2.008,4.042,2.008,6.951v0.734h-15.641v0.309c0,2.471,0.58,4.532,1.738,6.178c1.312,1.907,3.141,2.857,5.482,2.857
		c3.244,0,5.445-1.517,6.605-4.556l1.006,0.542c-0.516,1.364-1.328,2.483-2.436,3.36C152.883,28.791,151.158,29.356,149.148,29.356
		 M156.256,17.849c0-2.342-0.555-4.274-1.662-5.792c-1.234-1.725-2.973-2.588-5.213-2.588c-2.318,0-4.133,0.836-5.445,2.51
		c-1.158,1.52-1.814,3.476-1.969,5.87H156.256z"/>
	<polygon fill="#36557E" points="161.855,1.126 163.092,1.126 163.092,20.243 174.639,8.812 176.145,8.812 168.846,16.111 
		177.303,28.856 175.912,28.856 167.996,16.961 163.092,21.71 163.092,28.856 161.855,28.856 	"/>
	<path fill="#36557E" d="M183.68,27.682c0,0.672-0.545,1.217-1.217,1.217s-1.217-0.545-1.217-1.217c0-0.671,0.545-1.216,1.217-1.216
		S183.68,27.011,183.68,27.682"/>
	<path fill="#293371" d="M60.47,47.085h2.295v-4.5c0-0.41,0.015-0.831,0.015-0.831h-0.03c0,0-0.136,0.303-0.422,0.572l-0.65,0.591
		l-1.524-1.631l2.915-2.733h2.28v8.532h2.311v2.265H60.47V47.085z"/>
	<path fill="#293371" d="M68.312,44.365c0-2.93,1.797-5.995,5.15-5.995c1.509,0,2.385,0.468,2.385,0.468l-0.709,2.265
		c0,0-0.709-0.314-1.48-0.314c-1.268,0-1.993,0.783-2.325,1.779h0.03c0.256-0.18,0.967-0.374,1.48-0.374
		c2.25,0,3.534,1.839,3.534,3.699c0,1.826-1.345,3.637-3.685,3.637C70.518,49.529,68.312,47.886,68.312,44.365 M73.78,45.905
		c0-0.771-0.468-1.585-1.631-1.585c-0.604,0-1.118,0.149-1.118,0.648c0,1.286,0.907,2.146,1.662,2.146
		C73.357,47.114,73.78,46.541,73.78,45.905"/>
	<path fill="#293371" d="M7.388,47.127h-3.38l-0.652,2.274H0.628l3.683-10.839h2.788l3.684,10.839H8.054L7.388,47.127z M5.69,41.034
		c0,0-0.243,1.182-0.439,1.864l-0.622,2.106h2.137L6.16,42.898c-0.197-0.683-0.439-1.864-0.439-1.864H5.69z"/>
	<path fill="#293371" d="M10.752,38.562h2.789l1.364,6.776c0.136,0.666,0.136,1.137,0.136,1.137h0.031c0,0,0.015-0.471,0.182-1.137
		l1.667-6.776h2.136l1.623,6.776c0.167,0.666,0.182,1.137,0.182,1.137h0.03c0,0,0-0.471,0.136-1.137l1.485-6.776h2.744
		l-2.744,10.839h-2.955l-1.364-5.472c-0.167-0.699-0.212-1.273-0.212-1.273h-0.031c0,0-0.045,0.574-0.211,1.273l-1.364,5.472H13.39
		L10.752,38.562z"/>
	<path fill="#293371" d="M31.375,47.127h-3.38l-0.652,2.274h-2.727l3.682-10.839h2.79l3.683,10.839h-2.729L31.375,47.127z
		 M29.677,41.034c0,0-0.242,1.182-0.439,1.864l-0.622,2.106h2.138l-0.606-2.106c-0.198-0.683-0.44-1.864-0.44-1.864H29.677z"/>
	<path fill="#293371" d="M35.84,38.562h3.774c1.106,0,1.636,0.077,2.106,0.259c1.227,0.47,2,1.577,2,3.151
		c0,1.153-0.545,2.41-1.622,2.956v0.031c0,0,0.152,0.196,0.41,0.652l2.106,3.789H41.66l-1.924-3.653h-1.243v3.653H35.84V38.562z
		 M39.645,43.474c0.849,0,1.379-0.469,1.379-1.334c0-0.816-0.303-1.303-1.638-1.303h-0.894v2.637H39.645z"/>
	<path fill="#293371" d="M45.971,38.562h3.85c3.41,0,5.593,1.986,5.593,5.396s-2.183,5.442-5.593,5.442h-3.85V38.562z
		 M49.715,47.127c1.833,0,2.956-1.091,2.956-3.168c0-2.062-1.167-3.122-2.956-3.122h-1.092v6.29H49.715z"/>
</g>
</svg>
